G04 #@! TF.GenerationSoftware,KiCad,Pcbnew,(5.0.2)-1*
G04 #@! TF.CreationDate,2019-05-12T16:02:16+10:00*
G04 #@! TF.ProjectId,DTC,4454432e-6b69-4636-9164-5f7063625858,rev?*
G04 #@! TF.SameCoordinates,Original*
G04 #@! TF.FileFunction,Legend,Top*
G04 #@! TF.FilePolarity,Positive*
%FSLAX46Y46*%
G04 Gerber Fmt 4.6, Leading zero omitted, Abs format (unit mm)*
G04 Created by KiCad (PCBNEW (5.0.2)-1) date 12/05/2019 16:02:16*
%MOMM*%
%LPD*%
G01*
G04 APERTURE LIST*
%ADD10C,0.150000*%
%ADD11C,0.300000*%
%ADD12C,0.120000*%
%ADD13C,0.100000*%
G04 APERTURE END LIST*
D10*
X99060000Y-139700000D02*
X99060000Y-142240000D01*
X99060000Y-58420000D02*
X99060000Y-139700000D01*
X101600000Y-58420000D02*
X99060000Y-58420000D01*
X177800000Y-58420000D02*
X101600000Y-58420000D01*
X177800000Y-142240000D02*
X177800000Y-58420000D01*
X99060000Y-142240000D02*
X177800000Y-142240000D01*
D11*
X115007142Y-137838571D02*
X115007142Y-136338571D01*
X115007142Y-136910000D02*
X115150000Y-136838571D01*
X115435714Y-136838571D01*
X115578571Y-136910000D01*
X115650000Y-136981428D01*
X115721428Y-137124285D01*
X115721428Y-137552857D01*
X115650000Y-137695714D01*
X115578571Y-137767142D01*
X115435714Y-137838571D01*
X115150000Y-137838571D01*
X115007142Y-137767142D01*
X116221428Y-136838571D02*
X116578571Y-137838571D01*
X116935714Y-136838571D02*
X116578571Y-137838571D01*
X116435714Y-138195714D01*
X116364285Y-138267142D01*
X116221428Y-138338571D01*
X119435714Y-136410000D02*
X119292857Y-136338571D01*
X119078571Y-136338571D01*
X118864285Y-136410000D01*
X118721428Y-136552857D01*
X118650000Y-136695714D01*
X118578571Y-136981428D01*
X118578571Y-137195714D01*
X118650000Y-137481428D01*
X118721428Y-137624285D01*
X118864285Y-137767142D01*
X119078571Y-137838571D01*
X119221428Y-137838571D01*
X119435714Y-137767142D01*
X119507142Y-137695714D01*
X119507142Y-137195714D01*
X119221428Y-137195714D01*
X120150000Y-137838571D02*
X120150000Y-136838571D01*
X120150000Y-137124285D02*
X120221428Y-136981428D01*
X120292857Y-136910000D01*
X120435714Y-136838571D01*
X120578571Y-136838571D01*
X121721428Y-137838571D02*
X121721428Y-137052857D01*
X121650000Y-136910000D01*
X121507142Y-136838571D01*
X121221428Y-136838571D01*
X121078571Y-136910000D01*
X121721428Y-137767142D02*
X121578571Y-137838571D01*
X121221428Y-137838571D01*
X121078571Y-137767142D01*
X121007142Y-137624285D01*
X121007142Y-137481428D01*
X121078571Y-137338571D01*
X121221428Y-137267142D01*
X121578571Y-137267142D01*
X121721428Y-137195714D01*
X123007142Y-137767142D02*
X122864285Y-137838571D01*
X122578571Y-137838571D01*
X122435714Y-137767142D01*
X122364285Y-137624285D01*
X122364285Y-137052857D01*
X122435714Y-136910000D01*
X122578571Y-136838571D01*
X122864285Y-136838571D01*
X123007142Y-136910000D01*
X123078571Y-137052857D01*
X123078571Y-137195714D01*
X122364285Y-137338571D01*
X123721428Y-137838571D02*
X123721428Y-136838571D01*
X123721428Y-136981428D02*
X123792857Y-136910000D01*
X123935714Y-136838571D01*
X124150000Y-136838571D01*
X124292857Y-136910000D01*
X124364285Y-137052857D01*
X124364285Y-137838571D01*
X124364285Y-137052857D02*
X124435714Y-136910000D01*
X124578571Y-136838571D01*
X124792857Y-136838571D01*
X124935714Y-136910000D01*
X125007142Y-137052857D01*
X125007142Y-137838571D01*
X126292857Y-137767142D02*
X126150000Y-137838571D01*
X125864285Y-137838571D01*
X125721428Y-137767142D01*
X125650000Y-137624285D01*
X125650000Y-137052857D01*
X125721428Y-136910000D01*
X125864285Y-136838571D01*
X126150000Y-136838571D01*
X126292857Y-136910000D01*
X126364285Y-137052857D01*
X126364285Y-137195714D01*
X125650000Y-137338571D01*
X114737142Y-135298571D02*
X114737142Y-133798571D01*
X115094285Y-133798571D01*
X115308571Y-133870000D01*
X115451428Y-134012857D01*
X115522857Y-134155714D01*
X115594285Y-134441428D01*
X115594285Y-134655714D01*
X115522857Y-134941428D01*
X115451428Y-135084285D01*
X115308571Y-135227142D01*
X115094285Y-135298571D01*
X114737142Y-135298571D01*
X116022857Y-133798571D02*
X116880000Y-133798571D01*
X116451428Y-135298571D02*
X116451428Y-133798571D01*
X118237142Y-135155714D02*
X118165714Y-135227142D01*
X117951428Y-135298571D01*
X117808571Y-135298571D01*
X117594285Y-135227142D01*
X117451428Y-135084285D01*
X117380000Y-134941428D01*
X117308571Y-134655714D01*
X117308571Y-134441428D01*
X117380000Y-134155714D01*
X117451428Y-134012857D01*
X117594285Y-133870000D01*
X117808571Y-133798571D01*
X117951428Y-133798571D01*
X118165714Y-133870000D01*
X118237142Y-133941428D01*
X119880000Y-134298571D02*
X120237142Y-135298571D01*
X120594285Y-134298571D01*
X121951428Y-135298571D02*
X121094285Y-135298571D01*
X121522857Y-135298571D02*
X121522857Y-133798571D01*
X121380000Y-134012857D01*
X121237142Y-134155714D01*
X121094285Y-134227142D01*
X122594285Y-135155714D02*
X122665714Y-135227142D01*
X122594285Y-135298571D01*
X122522857Y-135227142D01*
X122594285Y-135155714D01*
X122594285Y-135298571D01*
X123594285Y-133798571D02*
X123737142Y-133798571D01*
X123880000Y-133870000D01*
X123951428Y-133941428D01*
X124022857Y-134084285D01*
X124094285Y-134370000D01*
X124094285Y-134727142D01*
X124022857Y-135012857D01*
X123951428Y-135155714D01*
X123880000Y-135227142D01*
X123737142Y-135298571D01*
X123594285Y-135298571D01*
X123451428Y-135227142D01*
X123380000Y-135155714D01*
X123308571Y-135012857D01*
X123237142Y-134727142D01*
X123237142Y-134370000D01*
X123308571Y-134084285D01*
X123380000Y-133941428D01*
X123451428Y-133870000D01*
X123594285Y-133798571D01*
D12*
G04 #@! TO.C,D1*
X145119000Y-117970000D02*
X145119000Y-120790000D01*
X150739000Y-119380000D02*
X149599000Y-119380000D01*
X143139000Y-119380000D02*
X144279000Y-119380000D01*
X149599000Y-117970000D02*
X144279000Y-117970000D01*
X149599000Y-120790000D02*
X149599000Y-117970000D01*
X144279000Y-120790000D02*
X149599000Y-120790000D01*
X144279000Y-117970000D02*
X144279000Y-120790000D01*
G04 #@! TO.C,D2*
X144279000Y-121780000D02*
X144279000Y-124600000D01*
X144279000Y-124600000D02*
X149599000Y-124600000D01*
X149599000Y-124600000D02*
X149599000Y-121780000D01*
X149599000Y-121780000D02*
X144279000Y-121780000D01*
X143139000Y-123190000D02*
X144279000Y-123190000D01*
X150739000Y-123190000D02*
X149599000Y-123190000D01*
X145119000Y-121780000D02*
X145119000Y-124600000D01*
G04 #@! TO.C,D3*
X169460000Y-97930000D02*
X169460000Y-95110000D01*
X163840000Y-96520000D02*
X164980000Y-96520000D01*
X171440000Y-96520000D02*
X170300000Y-96520000D01*
X164980000Y-97930000D02*
X170300000Y-97930000D01*
X164980000Y-95110000D02*
X164980000Y-97930000D01*
X170300000Y-95110000D02*
X164980000Y-95110000D01*
X170300000Y-97930000D02*
X170300000Y-95110000D01*
G04 #@! TO.C,J1*
X174536000Y-63005000D02*
X174536000Y-62385000D01*
X172936000Y-63005000D02*
X174536000Y-63005000D01*
X172936000Y-62385000D02*
X172936000Y-63005000D01*
X171996000Y-63005000D02*
X171996000Y-62385000D01*
X170396000Y-63005000D02*
X171996000Y-63005000D01*
X170396000Y-62385000D02*
X170396000Y-63005000D01*
X169456000Y-63005000D02*
X169456000Y-62385000D01*
X167856000Y-63005000D02*
X169456000Y-63005000D01*
X167856000Y-62385000D02*
X167856000Y-63005000D01*
X166916000Y-63005000D02*
X166916000Y-62385000D01*
X165316000Y-63005000D02*
X166916000Y-63005000D01*
X165316000Y-62385000D02*
X165316000Y-63005000D01*
X164376000Y-63005000D02*
X164376000Y-62385000D01*
X162776000Y-63005000D02*
X164376000Y-63005000D01*
X162776000Y-62385000D02*
X162776000Y-63005000D01*
X161836000Y-63005000D02*
X161836000Y-62385000D01*
X160236000Y-63005000D02*
X161836000Y-63005000D01*
X160236000Y-62385000D02*
X160236000Y-63005000D01*
X159296000Y-63005000D02*
X159296000Y-62385000D01*
X157696000Y-63005000D02*
X159296000Y-63005000D01*
X157696000Y-62385000D02*
X157696000Y-63005000D01*
X156756000Y-63005000D02*
X156756000Y-62385000D01*
X155156000Y-63005000D02*
X156756000Y-63005000D01*
X155156000Y-62385000D02*
X155156000Y-63005000D01*
X154216000Y-63005000D02*
X154216000Y-62385000D01*
X152616000Y-63005000D02*
X154216000Y-63005000D01*
X152616000Y-62385000D02*
X152616000Y-63005000D01*
X151676000Y-63005000D02*
X151676000Y-62385000D01*
X150076000Y-63005000D02*
X151676000Y-63005000D01*
X150076000Y-62385000D02*
X150076000Y-63005000D01*
X149136000Y-63005000D02*
X149136000Y-62385000D01*
X147536000Y-63005000D02*
X149136000Y-63005000D01*
X147536000Y-62385000D02*
X147536000Y-63005000D01*
X146596000Y-63005000D02*
X146596000Y-62385000D01*
X144996000Y-63005000D02*
X146596000Y-63005000D01*
X144996000Y-62385000D02*
X144996000Y-63005000D01*
X144056000Y-63005000D02*
X144056000Y-62385000D01*
X142456000Y-63005000D02*
X144056000Y-63005000D01*
X142456000Y-62385000D02*
X142456000Y-63005000D01*
X141516000Y-63005000D02*
X141516000Y-62385000D01*
X139916000Y-63005000D02*
X141516000Y-63005000D01*
X139916000Y-62385000D02*
X139916000Y-63005000D01*
X173486000Y-68385000D02*
X173486000Y-67385000D01*
X168656000Y-66955000D02*
X168656000Y-67385000D01*
X173486000Y-66955000D02*
X168656000Y-66955000D01*
X173736000Y-67385000D02*
X173486000Y-66955000D01*
X168656000Y-67385000D02*
X168656000Y-68385000D01*
X173736000Y-67385000D02*
X168656000Y-67385000D01*
X173736000Y-68385000D02*
X173736000Y-67385000D01*
X140966000Y-68385000D02*
X140966000Y-67385000D01*
X145796000Y-66955000D02*
X145796000Y-67385000D01*
X140966000Y-66955000D02*
X145796000Y-66955000D01*
X140716000Y-67385000D02*
X140966000Y-66955000D01*
X145796000Y-67385000D02*
X145796000Y-68385000D01*
X140716000Y-67385000D02*
X145796000Y-67385000D01*
X140716000Y-68385000D02*
X140716000Y-67385000D01*
X175106000Y-62385000D02*
X139346000Y-62385000D01*
X175106000Y-68385000D02*
X175106000Y-62385000D01*
X139346000Y-68385000D02*
X175106000Y-68385000D01*
X139346000Y-62385000D02*
X139346000Y-68385000D01*
G04 #@! TO.C,J2*
X139546723Y-137458759D02*
X139546723Y-138078759D01*
X141146723Y-137458759D02*
X139546723Y-137458759D01*
X141146723Y-138078759D02*
X141146723Y-137458759D01*
X142086723Y-137458759D02*
X142086723Y-138078759D01*
X143686723Y-137458759D02*
X142086723Y-137458759D01*
X143686723Y-138078759D02*
X143686723Y-137458759D01*
X140596723Y-132078759D02*
X140596723Y-133078759D01*
X142636723Y-132078759D02*
X142636723Y-133078759D01*
X140596723Y-133508759D02*
X140346723Y-133078759D01*
X142636723Y-133508759D02*
X140596723Y-133508759D01*
X142886723Y-133078759D02*
X142636723Y-133508759D01*
X140346723Y-133078759D02*
X140346723Y-132078759D01*
X142886723Y-133078759D02*
X140346723Y-133078759D01*
X142886723Y-132078759D02*
X142886723Y-133078759D01*
X138976723Y-138078759D02*
X144256723Y-138078759D01*
X138976723Y-132078759D02*
X138976723Y-138078759D01*
X144256723Y-132078759D02*
X138976723Y-132078759D01*
X144256723Y-138078759D02*
X144256723Y-132078759D01*
G04 #@! TO.C,J3*
X151230000Y-138078759D02*
X151230000Y-132078759D01*
X151230000Y-132078759D02*
X145950000Y-132078759D01*
X145950000Y-132078759D02*
X145950000Y-138078759D01*
X145950000Y-138078759D02*
X151230000Y-138078759D01*
X149860000Y-132078759D02*
X149860000Y-133078759D01*
X149860000Y-133078759D02*
X147320000Y-133078759D01*
X147320000Y-133078759D02*
X147320000Y-132078759D01*
X149860000Y-133078759D02*
X149610000Y-133508759D01*
X149610000Y-133508759D02*
X147570000Y-133508759D01*
X147570000Y-133508759D02*
X147320000Y-133078759D01*
X149610000Y-132078759D02*
X149610000Y-133078759D01*
X147570000Y-132078759D02*
X147570000Y-133078759D01*
X150660000Y-138078759D02*
X150660000Y-137458759D01*
X150660000Y-137458759D02*
X149060000Y-137458759D01*
X149060000Y-137458759D02*
X149060000Y-138078759D01*
X148120000Y-138078759D02*
X148120000Y-137458759D01*
X148120000Y-137458759D02*
X146520000Y-137458759D01*
X146520000Y-137458759D02*
X146520000Y-138078759D01*
D13*
G04 #@! TO.C,J4*
X101318000Y-131516000D02*
X101318000Y-132516000D01*
X110518000Y-131516000D02*
X110518000Y-132516000D01*
X101318000Y-138816000D02*
X101318000Y-138316000D01*
X101318000Y-138816000D02*
X101818000Y-138816000D01*
X110518000Y-138816000D02*
X110018000Y-138816000D01*
X110518000Y-138816000D02*
X110518000Y-138316000D01*
X107118000Y-129816000D02*
X104718000Y-129816000D01*
X110518000Y-124216000D02*
X110518000Y-124716000D01*
X110518000Y-124216000D02*
X110018000Y-124216000D01*
X101318000Y-124216000D02*
X101318000Y-124716000D01*
X101318000Y-124216000D02*
X101818000Y-124216000D01*
D12*
G04 #@! TO.C,J5*
X175260000Y-130937000D02*
X160020000Y-130937000D01*
X175260000Y-138557000D02*
X160020000Y-138557000D01*
X175260000Y-132207000D02*
X160020000Y-132207000D01*
X160020000Y-130937000D02*
X160020000Y-138557000D01*
X175260000Y-130937000D02*
X175260000Y-138557000D01*
G04 #@! TO.C,K1*
X168990000Y-106340000D02*
X172140000Y-106340000D01*
X163140000Y-106340000D02*
X166290000Y-106340000D01*
X166640000Y-101230000D02*
X168640000Y-101230000D01*
X167290000Y-106940000D02*
X167990000Y-106940000D01*
X167290000Y-105740000D02*
X167290000Y-106940000D01*
X167990000Y-105740000D02*
X167290000Y-105740000D01*
X167990000Y-106940000D02*
X167990000Y-105740000D01*
X167290000Y-106540000D02*
X167990000Y-106140000D01*
X159290000Y-124190000D02*
X175990000Y-124190000D01*
X159290000Y-101490000D02*
X159290000Y-124190000D01*
X175990000Y-101490000D02*
X159290000Y-101490000D01*
X175990000Y-124190000D02*
X175990000Y-101490000D01*
D10*
G04 #@! TO.C,Q1*
X169900000Y-81302000D02*
G75*
G03X169850000Y-85152000I1900000J-1950000D01*
G01*
D13*
X173050000Y-80902000D02*
X172750000Y-80752000D01*
X173050000Y-80902000D02*
X173050000Y-81202000D01*
X173050000Y-85302000D02*
X173050000Y-85602000D01*
X173050000Y-85602000D02*
X172750000Y-85752000D01*
G04 #@! TO.C,Q2*
X148840000Y-97993000D02*
X148690000Y-97693000D01*
X149140000Y-97993000D02*
X148840000Y-97993000D01*
X153540000Y-97993000D02*
X153240000Y-97993000D01*
X153540000Y-97993000D02*
X153690000Y-97693000D01*
D10*
X153140000Y-94843000D02*
G75*
G03X149290000Y-94793000I-1950000J-1900000D01*
G01*
D12*
G04 #@! TO.C,R1*
X156709000Y-87630000D02*
X157779000Y-87630000D01*
X162569000Y-87630000D02*
X161499000Y-87630000D01*
X157779000Y-88490000D02*
X161499000Y-88490000D01*
X157779000Y-86770000D02*
X157779000Y-88490000D01*
X161499000Y-86770000D02*
X157779000Y-86770000D01*
X161499000Y-88490000D02*
X161499000Y-86770000D01*
G04 #@! TO.C,R2*
X149450000Y-107487000D02*
X147730000Y-107487000D01*
X147730000Y-107487000D02*
X147730000Y-111207000D01*
X147730000Y-111207000D02*
X149450000Y-111207000D01*
X149450000Y-111207000D02*
X149450000Y-107487000D01*
X148590000Y-106417000D02*
X148590000Y-107487000D01*
X148590000Y-112277000D02*
X148590000Y-111207000D01*
G04 #@! TO.C,R3*
X144907000Y-112277000D02*
X144907000Y-111207000D01*
X144907000Y-106417000D02*
X144907000Y-107487000D01*
X145767000Y-111207000D02*
X145767000Y-107487000D01*
X144047000Y-111207000D02*
X145767000Y-111207000D01*
X144047000Y-107487000D02*
X144047000Y-111207000D01*
X145767000Y-107487000D02*
X144047000Y-107487000D01*
G04 #@! TO.C,R4*
X153260000Y-107487000D02*
X151540000Y-107487000D01*
X151540000Y-107487000D02*
X151540000Y-111207000D01*
X151540000Y-111207000D02*
X153260000Y-111207000D01*
X153260000Y-111207000D02*
X153260000Y-107487000D01*
X152400000Y-106417000D02*
X152400000Y-107487000D01*
X152400000Y-112277000D02*
X152400000Y-111207000D01*
D10*
G04 #@! TO.C,U1*
X113126000Y-69202000D02*
X125126000Y-69202000D01*
X125126000Y-69202000D02*
X125126000Y-83202000D01*
X125126000Y-83202000D02*
X113126000Y-83202000D01*
X113126000Y-83202000D02*
X113126000Y-69202000D01*
X121666000Y-68072000D02*
X114046000Y-68072000D01*
X114046000Y-68072000D02*
X114046000Y-62992000D01*
X114046000Y-62992000D02*
X115316000Y-62992000D01*
X115316000Y-62992000D02*
X115316000Y-66802000D01*
X115316000Y-66802000D02*
X116586000Y-66802000D01*
X116586000Y-66802000D02*
X116586000Y-62992000D01*
X116586000Y-62992000D02*
X117856000Y-62992000D01*
X117856000Y-62992000D02*
X117856000Y-66802000D01*
X117856000Y-66802000D02*
X119126000Y-66802000D01*
X119126000Y-66802000D02*
X119126000Y-62992000D01*
X119126000Y-62992000D02*
X120396000Y-62992000D01*
X120396000Y-62992000D02*
X120396000Y-66802000D01*
X120396000Y-66802000D02*
X121666000Y-66802000D01*
X121666000Y-66802000D02*
X121666000Y-62992000D01*
X121666000Y-62992000D02*
X125476000Y-62992000D01*
X115316000Y-120142000D02*
X122936000Y-120142000D01*
X122936000Y-120142000D02*
X122936000Y-113792000D01*
X122936000Y-113792000D02*
X115316000Y-113792000D01*
X115316000Y-113792000D02*
X115316000Y-120142000D01*
X133622051Y-116332000D02*
G75*
G03X133622051Y-116332000I-1796051J0D01*
G01*
X108222051Y-116332000D02*
G75*
G03X108222051Y-116332000I-1796051J0D01*
G01*
X108222051Y-64262000D02*
G75*
G03X108222051Y-64262000I-1796051J0D01*
G01*
X133622051Y-64262000D02*
G75*
G03X133622051Y-64262000I-1796051J0D01*
G01*
X134376000Y-61702000D02*
X104376000Y-61702000D01*
X104376000Y-61702000D02*
X103876000Y-61702000D01*
X103876000Y-61702000D02*
X103876000Y-118702000D01*
X103876000Y-118702000D02*
X134376000Y-118702000D01*
X134376000Y-118702000D02*
X134376000Y-61702000D01*
D12*
G04 #@! TO.C,C1*
X130480000Y-126350000D02*
X130480000Y-127650000D01*
X129880000Y-127000000D02*
X131080000Y-127000000D01*
X138061000Y-126754000D02*
X138061000Y-127246000D01*
X138021000Y-126402000D02*
X138021000Y-127598000D01*
X137981000Y-126186000D02*
X137981000Y-127814000D01*
X137941000Y-126017000D02*
X137941000Y-127983000D01*
X137901000Y-125873000D02*
X137901000Y-128127000D01*
X137861000Y-125746000D02*
X137861000Y-128254000D01*
X137821000Y-125631000D02*
X137821000Y-128369000D01*
X137781000Y-125527000D02*
X137781000Y-128473000D01*
X137741000Y-125430000D02*
X137741000Y-128570000D01*
X137701000Y-125340000D02*
X137701000Y-128660000D01*
X137661000Y-125255000D02*
X137661000Y-128745000D01*
X137621000Y-125174000D02*
X137621000Y-128826000D01*
X137581000Y-125098000D02*
X137581000Y-128902000D01*
X137541000Y-125026000D02*
X137541000Y-128974000D01*
X137501000Y-124957000D02*
X137501000Y-129043000D01*
X137461000Y-124891000D02*
X137461000Y-129109000D01*
X137421000Y-124827000D02*
X137421000Y-129173000D01*
X137381000Y-124766000D02*
X137381000Y-129234000D01*
X137341000Y-124707000D02*
X137341000Y-129293000D01*
X137301000Y-124651000D02*
X137301000Y-129349000D01*
X137261000Y-124596000D02*
X137261000Y-129404000D01*
X137221000Y-124543000D02*
X137221000Y-129457000D01*
X137181000Y-124492000D02*
X137181000Y-129508000D01*
X137141000Y-124443000D02*
X137141000Y-129557000D01*
X137101000Y-124395000D02*
X137101000Y-129605000D01*
X137061000Y-124348000D02*
X137061000Y-129652000D01*
X137021000Y-124303000D02*
X137021000Y-129697000D01*
X136981000Y-124260000D02*
X136981000Y-129740000D01*
X136941000Y-124217000D02*
X136941000Y-129783000D01*
X136901000Y-124176000D02*
X136901000Y-129824000D01*
X136861000Y-124135000D02*
X136861000Y-129865000D01*
X136821000Y-127980000D02*
X136821000Y-129904000D01*
X136821000Y-124096000D02*
X136821000Y-126020000D01*
X136781000Y-127980000D02*
X136781000Y-129942000D01*
X136781000Y-124058000D02*
X136781000Y-126020000D01*
X136741000Y-127980000D02*
X136741000Y-129979000D01*
X136741000Y-124021000D02*
X136741000Y-126020000D01*
X136701000Y-127980000D02*
X136701000Y-130015000D01*
X136701000Y-123985000D02*
X136701000Y-126020000D01*
X136661000Y-127980000D02*
X136661000Y-130050000D01*
X136661000Y-123950000D02*
X136661000Y-126020000D01*
X136621000Y-127980000D02*
X136621000Y-130084000D01*
X136621000Y-123916000D02*
X136621000Y-126020000D01*
X136581000Y-127980000D02*
X136581000Y-130118000D01*
X136581000Y-123882000D02*
X136581000Y-126020000D01*
X136541000Y-127980000D02*
X136541000Y-130150000D01*
X136541000Y-123850000D02*
X136541000Y-126020000D01*
X136501000Y-127980000D02*
X136501000Y-130182000D01*
X136501000Y-123818000D02*
X136501000Y-126020000D01*
X136461000Y-127980000D02*
X136461000Y-130213000D01*
X136461000Y-123787000D02*
X136461000Y-126020000D01*
X136421000Y-127980000D02*
X136421000Y-130243000D01*
X136421000Y-123757000D02*
X136421000Y-126020000D01*
X136381000Y-127980000D02*
X136381000Y-130272000D01*
X136381000Y-123728000D02*
X136381000Y-126020000D01*
X136341000Y-127980000D02*
X136341000Y-130301000D01*
X136341000Y-123699000D02*
X136341000Y-126020000D01*
X136301000Y-127980000D02*
X136301000Y-130329000D01*
X136301000Y-123671000D02*
X136301000Y-126020000D01*
X136261000Y-127980000D02*
X136261000Y-130356000D01*
X136261000Y-123644000D02*
X136261000Y-126020000D01*
X136221000Y-127980000D02*
X136221000Y-130383000D01*
X136221000Y-123617000D02*
X136221000Y-126020000D01*
X136181000Y-127980000D02*
X136181000Y-130408000D01*
X136181000Y-123592000D02*
X136181000Y-126020000D01*
X136141000Y-127980000D02*
X136141000Y-130434000D01*
X136141000Y-123566000D02*
X136141000Y-126020000D01*
X136101000Y-127980000D02*
X136101000Y-130458000D01*
X136101000Y-123542000D02*
X136101000Y-126020000D01*
X136061000Y-127980000D02*
X136061000Y-130482000D01*
X136061000Y-123518000D02*
X136061000Y-126020000D01*
X136021000Y-127980000D02*
X136021000Y-130505000D01*
X136021000Y-123495000D02*
X136021000Y-126020000D01*
X135981000Y-127980000D02*
X135981000Y-130528000D01*
X135981000Y-123472000D02*
X135981000Y-126020000D01*
X135941000Y-127980000D02*
X135941000Y-130550000D01*
X135941000Y-123450000D02*
X135941000Y-126020000D01*
X135901000Y-127980000D02*
X135901000Y-130572000D01*
X135901000Y-123428000D02*
X135901000Y-126020000D01*
X135861000Y-127980000D02*
X135861000Y-130593000D01*
X135861000Y-123407000D02*
X135861000Y-126020000D01*
X135821000Y-127980000D02*
X135821000Y-130613000D01*
X135821000Y-123387000D02*
X135821000Y-126020000D01*
X135781000Y-127980000D02*
X135781000Y-130633000D01*
X135781000Y-123367000D02*
X135781000Y-126020000D01*
X135741000Y-127980000D02*
X135741000Y-130652000D01*
X135741000Y-123348000D02*
X135741000Y-126020000D01*
X135701000Y-127980000D02*
X135701000Y-130671000D01*
X135701000Y-123329000D02*
X135701000Y-126020000D01*
X135661000Y-127980000D02*
X135661000Y-130690000D01*
X135661000Y-123310000D02*
X135661000Y-126020000D01*
X135621000Y-127980000D02*
X135621000Y-130707000D01*
X135621000Y-123293000D02*
X135621000Y-126020000D01*
X135581000Y-127980000D02*
X135581000Y-130725000D01*
X135581000Y-123275000D02*
X135581000Y-126020000D01*
X135541000Y-127980000D02*
X135541000Y-130741000D01*
X135541000Y-123259000D02*
X135541000Y-126020000D01*
X135501000Y-127980000D02*
X135501000Y-130758000D01*
X135501000Y-123242000D02*
X135501000Y-126020000D01*
X135461000Y-127980000D02*
X135461000Y-130773000D01*
X135461000Y-123227000D02*
X135461000Y-126020000D01*
X135421000Y-127980000D02*
X135421000Y-130789000D01*
X135421000Y-123211000D02*
X135421000Y-126020000D01*
X135381000Y-127980000D02*
X135381000Y-130803000D01*
X135381000Y-123197000D02*
X135381000Y-126020000D01*
X135341000Y-127980000D02*
X135341000Y-130818000D01*
X135341000Y-123182000D02*
X135341000Y-126020000D01*
X135301000Y-127980000D02*
X135301000Y-130832000D01*
X135301000Y-123168000D02*
X135301000Y-126020000D01*
X135261000Y-127980000D02*
X135261000Y-130845000D01*
X135261000Y-123155000D02*
X135261000Y-126020000D01*
X135221000Y-127980000D02*
X135221000Y-130858000D01*
X135221000Y-123142000D02*
X135221000Y-126020000D01*
X135181000Y-127980000D02*
X135181000Y-130870000D01*
X135181000Y-123130000D02*
X135181000Y-126020000D01*
X135141000Y-127980000D02*
X135141000Y-130883000D01*
X135141000Y-123117000D02*
X135141000Y-126020000D01*
X135101000Y-127980000D02*
X135101000Y-130894000D01*
X135101000Y-123106000D02*
X135101000Y-126020000D01*
X135061000Y-127980000D02*
X135061000Y-130905000D01*
X135061000Y-123095000D02*
X135061000Y-126020000D01*
X135021000Y-127980000D02*
X135021000Y-130916000D01*
X135021000Y-123084000D02*
X135021000Y-126020000D01*
X134981000Y-127980000D02*
X134981000Y-130926000D01*
X134981000Y-123074000D02*
X134981000Y-126020000D01*
X134941000Y-127980000D02*
X134941000Y-130936000D01*
X134941000Y-123064000D02*
X134941000Y-126020000D01*
X134901000Y-127980000D02*
X134901000Y-130946000D01*
X134901000Y-123054000D02*
X134901000Y-126020000D01*
X134861000Y-123045000D02*
X134861000Y-130955000D01*
X134821000Y-123037000D02*
X134821000Y-130963000D01*
X134781000Y-123029000D02*
X134781000Y-130971000D01*
X134741000Y-123021000D02*
X134741000Y-130979000D01*
X134701000Y-123013000D02*
X134701000Y-130987000D01*
X134660000Y-123006000D02*
X134660000Y-130994000D01*
X134620000Y-123000000D02*
X134620000Y-131000000D01*
X134580000Y-122994000D02*
X134580000Y-131006000D01*
X134540000Y-122988000D02*
X134540000Y-131012000D01*
X134500000Y-122983000D02*
X134500000Y-131017000D01*
X134460000Y-122978000D02*
X134460000Y-131022000D01*
X134420000Y-122973000D02*
X134420000Y-131027000D01*
X134380000Y-122969000D02*
X134380000Y-131031000D01*
X134340000Y-122965000D02*
X134340000Y-131035000D01*
X134300000Y-122962000D02*
X134300000Y-131038000D01*
X134260000Y-122959000D02*
X134260000Y-131041000D01*
X134220000Y-122957000D02*
X134220000Y-131043000D01*
X134180000Y-122954000D02*
X134180000Y-131046000D01*
X134140000Y-122953000D02*
X134140000Y-131047000D01*
X134100000Y-122951000D02*
X134100000Y-131049000D01*
X134060000Y-122950000D02*
X134060000Y-131050000D01*
X134020000Y-122950000D02*
X134020000Y-131050000D01*
X133980000Y-122950000D02*
X133980000Y-131050000D01*
X138070000Y-127000000D02*
G75*
G03X138070000Y-127000000I-4090000J0D01*
G01*
G04 #@! TD*
G04 #@! TO.C,D1*
D10*
X146200904Y-117422380D02*
X146200904Y-116422380D01*
X146439000Y-116422380D01*
X146581857Y-116470000D01*
X146677095Y-116565238D01*
X146724714Y-116660476D01*
X146772333Y-116850952D01*
X146772333Y-116993809D01*
X146724714Y-117184285D01*
X146677095Y-117279523D01*
X146581857Y-117374761D01*
X146439000Y-117422380D01*
X146200904Y-117422380D01*
X147724714Y-117422380D02*
X147153285Y-117422380D01*
X147439000Y-117422380D02*
X147439000Y-116422380D01*
X147343761Y-116565238D01*
X147248523Y-116660476D01*
X147153285Y-116708095D01*
G04 #@! TO.C,D2*
X146200904Y-121232380D02*
X146200904Y-120232380D01*
X146439000Y-120232380D01*
X146581857Y-120280000D01*
X146677095Y-120375238D01*
X146724714Y-120470476D01*
X146772333Y-120660952D01*
X146772333Y-120803809D01*
X146724714Y-120994285D01*
X146677095Y-121089523D01*
X146581857Y-121184761D01*
X146439000Y-121232380D01*
X146200904Y-121232380D01*
X147153285Y-120327619D02*
X147200904Y-120280000D01*
X147296142Y-120232380D01*
X147534238Y-120232380D01*
X147629476Y-120280000D01*
X147677095Y-120327619D01*
X147724714Y-120422857D01*
X147724714Y-120518095D01*
X147677095Y-120660952D01*
X147105666Y-121232380D01*
X147724714Y-121232380D01*
G04 #@! TO.C,D3*
X166901904Y-99382380D02*
X166901904Y-98382380D01*
X167140000Y-98382380D01*
X167282857Y-98430000D01*
X167378095Y-98525238D01*
X167425714Y-98620476D01*
X167473333Y-98810952D01*
X167473333Y-98953809D01*
X167425714Y-99144285D01*
X167378095Y-99239523D01*
X167282857Y-99334761D01*
X167140000Y-99382380D01*
X166901904Y-99382380D01*
X167806666Y-98382380D02*
X168425714Y-98382380D01*
X168092380Y-98763333D01*
X168235238Y-98763333D01*
X168330476Y-98810952D01*
X168378095Y-98858571D01*
X168425714Y-98953809D01*
X168425714Y-99191904D01*
X168378095Y-99287142D01*
X168330476Y-99334761D01*
X168235238Y-99382380D01*
X167949523Y-99382380D01*
X167854285Y-99334761D01*
X167806666Y-99287142D01*
G04 #@! TO.C,J1*
X141382666Y-60357380D02*
X141382666Y-61071666D01*
X141335047Y-61214523D01*
X141239809Y-61309761D01*
X141096952Y-61357380D01*
X141001714Y-61357380D01*
X142382666Y-61357380D02*
X141811238Y-61357380D01*
X142096952Y-61357380D02*
X142096952Y-60357380D01*
X142001714Y-60500238D01*
X141906476Y-60595476D01*
X141811238Y-60643095D01*
G04 #@! TO.C,J2*
X141553389Y-139011139D02*
X141553389Y-139725425D01*
X141505770Y-139868282D01*
X141410532Y-139963520D01*
X141267675Y-140011139D01*
X141172437Y-140011139D01*
X141981961Y-139106378D02*
X142029580Y-139058759D01*
X142124818Y-139011139D01*
X142362913Y-139011139D01*
X142458151Y-139058759D01*
X142505770Y-139106378D01*
X142553389Y-139201616D01*
X142553389Y-139296854D01*
X142505770Y-139439711D01*
X141934342Y-140011139D01*
X142553389Y-140011139D01*
G04 #@! TO.C,J3*
X148526666Y-139011139D02*
X148526666Y-139725425D01*
X148479047Y-139868282D01*
X148383809Y-139963520D01*
X148240952Y-140011139D01*
X148145714Y-140011139D01*
X148907619Y-139011139D02*
X149526666Y-139011139D01*
X149193333Y-139392092D01*
X149336190Y-139392092D01*
X149431428Y-139439711D01*
X149479047Y-139487330D01*
X149526666Y-139582568D01*
X149526666Y-139820663D01*
X149479047Y-139915901D01*
X149431428Y-139963520D01*
X149336190Y-140011139D01*
X149050476Y-140011139D01*
X148955238Y-139963520D01*
X148907619Y-139915901D01*
G04 #@! TO.C,J4*
X105584666Y-139568380D02*
X105584666Y-140282666D01*
X105537047Y-140425523D01*
X105441809Y-140520761D01*
X105298952Y-140568380D01*
X105203714Y-140568380D01*
X106489428Y-139901714D02*
X106489428Y-140568380D01*
X106251333Y-139520761D02*
X106013238Y-140235047D01*
X106632285Y-140235047D01*
G04 #@! TO.C,J5*
X167336666Y-138849380D02*
X167336666Y-139563666D01*
X167289047Y-139706523D01*
X167193809Y-139801761D01*
X167050952Y-139849380D01*
X166955714Y-139849380D01*
X168289047Y-138849380D02*
X167812857Y-138849380D01*
X167765238Y-139325571D01*
X167812857Y-139277952D01*
X167908095Y-139230333D01*
X168146190Y-139230333D01*
X168241428Y-139277952D01*
X168289047Y-139325571D01*
X168336666Y-139420809D01*
X168336666Y-139658904D01*
X168289047Y-139754142D01*
X168241428Y-139801761D01*
X168146190Y-139849380D01*
X167908095Y-139849380D01*
X167812857Y-139801761D01*
X167765238Y-139754142D01*
G04 #@! TO.C,K1*
X166901904Y-100792380D02*
X166901904Y-99792380D01*
X167473333Y-100792380D02*
X167044761Y-100220952D01*
X167473333Y-99792380D02*
X166901904Y-100363809D01*
X168425714Y-100792380D02*
X167854285Y-100792380D01*
X168140000Y-100792380D02*
X168140000Y-99792380D01*
X168044761Y-99935238D01*
X167949523Y-100030476D01*
X167854285Y-100078095D01*
G04 #@! TO.C,Q1*
X168647619Y-83347238D02*
X168600000Y-83442476D01*
X168504761Y-83537714D01*
X168361904Y-83680571D01*
X168314285Y-83775809D01*
X168314285Y-83871047D01*
X168552380Y-83823428D02*
X168504761Y-83918666D01*
X168409523Y-84013904D01*
X168219047Y-84061523D01*
X167885714Y-84061523D01*
X167695238Y-84013904D01*
X167600000Y-83918666D01*
X167552380Y-83823428D01*
X167552380Y-83632952D01*
X167600000Y-83537714D01*
X167695238Y-83442476D01*
X167885714Y-83394857D01*
X168219047Y-83394857D01*
X168409523Y-83442476D01*
X168504761Y-83537714D01*
X168552380Y-83632952D01*
X168552380Y-83823428D01*
X168552380Y-82442476D02*
X168552380Y-83013904D01*
X168552380Y-82728190D02*
X167552380Y-82728190D01*
X167695238Y-82823428D01*
X167790476Y-82918666D01*
X167838095Y-83013904D01*
G04 #@! TO.C,Q2*
X151094761Y-93590619D02*
X150999523Y-93543000D01*
X150904285Y-93447761D01*
X150761428Y-93304904D01*
X150666190Y-93257285D01*
X150570952Y-93257285D01*
X150618571Y-93495380D02*
X150523333Y-93447761D01*
X150428095Y-93352523D01*
X150380476Y-93162047D01*
X150380476Y-92828714D01*
X150428095Y-92638238D01*
X150523333Y-92543000D01*
X150618571Y-92495380D01*
X150809047Y-92495380D01*
X150904285Y-92543000D01*
X150999523Y-92638238D01*
X151047142Y-92828714D01*
X151047142Y-93162047D01*
X150999523Y-93352523D01*
X150904285Y-93447761D01*
X150809047Y-93495380D01*
X150618571Y-93495380D01*
X151428095Y-92590619D02*
X151475714Y-92543000D01*
X151570952Y-92495380D01*
X151809047Y-92495380D01*
X151904285Y-92543000D01*
X151951904Y-92590619D01*
X151999523Y-92685857D01*
X151999523Y-92781095D01*
X151951904Y-92923952D01*
X151380476Y-93495380D01*
X151999523Y-93495380D01*
G04 #@! TO.C,R1*
X159472333Y-89942380D02*
X159139000Y-89466190D01*
X158900904Y-89942380D02*
X158900904Y-88942380D01*
X159281857Y-88942380D01*
X159377095Y-88990000D01*
X159424714Y-89037619D01*
X159472333Y-89132857D01*
X159472333Y-89275714D01*
X159424714Y-89370952D01*
X159377095Y-89418571D01*
X159281857Y-89466190D01*
X158900904Y-89466190D01*
X160424714Y-89942380D02*
X159853285Y-89942380D01*
X160139000Y-89942380D02*
X160139000Y-88942380D01*
X160043761Y-89085238D01*
X159948523Y-89180476D01*
X159853285Y-89228095D01*
G04 #@! TO.C,R2*
X150902380Y-109513666D02*
X150426190Y-109847000D01*
X150902380Y-110085095D02*
X149902380Y-110085095D01*
X149902380Y-109704142D01*
X149950000Y-109608904D01*
X149997619Y-109561285D01*
X150092857Y-109513666D01*
X150235714Y-109513666D01*
X150330952Y-109561285D01*
X150378571Y-109608904D01*
X150426190Y-109704142D01*
X150426190Y-110085095D01*
X149997619Y-109132714D02*
X149950000Y-109085095D01*
X149902380Y-108989857D01*
X149902380Y-108751761D01*
X149950000Y-108656523D01*
X149997619Y-108608904D01*
X150092857Y-108561285D01*
X150188095Y-108561285D01*
X150330952Y-108608904D01*
X150902380Y-109180333D01*
X150902380Y-108561285D01*
G04 #@! TO.C,R3*
X147219380Y-109513666D02*
X146743190Y-109847000D01*
X147219380Y-110085095D02*
X146219380Y-110085095D01*
X146219380Y-109704142D01*
X146267000Y-109608904D01*
X146314619Y-109561285D01*
X146409857Y-109513666D01*
X146552714Y-109513666D01*
X146647952Y-109561285D01*
X146695571Y-109608904D01*
X146743190Y-109704142D01*
X146743190Y-110085095D01*
X146219380Y-109180333D02*
X146219380Y-108561285D01*
X146600333Y-108894619D01*
X146600333Y-108751761D01*
X146647952Y-108656523D01*
X146695571Y-108608904D01*
X146790809Y-108561285D01*
X147028904Y-108561285D01*
X147124142Y-108608904D01*
X147171761Y-108656523D01*
X147219380Y-108751761D01*
X147219380Y-109037476D01*
X147171761Y-109132714D01*
X147124142Y-109180333D01*
G04 #@! TO.C,R4*
X154712380Y-109513666D02*
X154236190Y-109847000D01*
X154712380Y-110085095D02*
X153712380Y-110085095D01*
X153712380Y-109704142D01*
X153760000Y-109608904D01*
X153807619Y-109561285D01*
X153902857Y-109513666D01*
X154045714Y-109513666D01*
X154140952Y-109561285D01*
X154188571Y-109608904D01*
X154236190Y-109704142D01*
X154236190Y-110085095D01*
X154045714Y-108656523D02*
X154712380Y-108656523D01*
X153664761Y-108894619D02*
X154379047Y-109132714D01*
X154379047Y-108513666D01*
G04 #@! TO.C,U1*
X118364095Y-91654380D02*
X118364095Y-92463904D01*
X118411714Y-92559142D01*
X118459333Y-92606761D01*
X118554571Y-92654380D01*
X118745047Y-92654380D01*
X118840285Y-92606761D01*
X118887904Y-92559142D01*
X118935523Y-92463904D01*
X118935523Y-91654380D01*
X119935523Y-92654380D02*
X119364095Y-92654380D01*
X119649809Y-92654380D02*
X119649809Y-91654380D01*
X119554571Y-91797238D01*
X119459333Y-91892476D01*
X119364095Y-91940095D01*
X106600761Y-106259380D02*
X106934095Y-107259380D01*
X107267428Y-106259380D01*
X107600761Y-107259380D02*
X107600761Y-106259380D01*
X108076952Y-107259380D02*
X108076952Y-106259380D01*
X108648380Y-107259380D01*
X108648380Y-106259380D01*
X107957904Y-103767000D02*
X107862666Y-103719380D01*
X107719809Y-103719380D01*
X107576952Y-103767000D01*
X107481714Y-103862238D01*
X107434095Y-103957476D01*
X107386476Y-104147952D01*
X107386476Y-104290809D01*
X107434095Y-104481285D01*
X107481714Y-104576523D01*
X107576952Y-104671761D01*
X107719809Y-104719380D01*
X107815047Y-104719380D01*
X107957904Y-104671761D01*
X108005523Y-104624142D01*
X108005523Y-104290809D01*
X107815047Y-104290809D01*
X107148380Y-102179380D02*
X106815047Y-101703190D01*
X106576952Y-102179380D02*
X106576952Y-101179380D01*
X106957904Y-101179380D01*
X107053142Y-101227000D01*
X107100761Y-101274619D01*
X107148380Y-101369857D01*
X107148380Y-101512714D01*
X107100761Y-101607952D01*
X107053142Y-101655571D01*
X106957904Y-101703190D01*
X106576952Y-101703190D01*
X107529333Y-102131761D02*
X107672190Y-102179380D01*
X107910285Y-102179380D01*
X108005523Y-102131761D01*
X108053142Y-102084142D01*
X108100761Y-101988904D01*
X108100761Y-101893666D01*
X108053142Y-101798428D01*
X108005523Y-101750809D01*
X107910285Y-101703190D01*
X107719809Y-101655571D01*
X107624571Y-101607952D01*
X107576952Y-101560333D01*
X107529333Y-101465095D01*
X107529333Y-101369857D01*
X107576952Y-101274619D01*
X107624571Y-101227000D01*
X107719809Y-101179380D01*
X107957904Y-101179380D01*
X108100761Y-101227000D01*
X108386476Y-101179380D02*
X108957904Y-101179380D01*
X108672190Y-102179380D02*
X108672190Y-101179380D01*
X106957904Y-99115571D02*
X107291238Y-99115571D01*
X107434095Y-99639380D02*
X106957904Y-99639380D01*
X106957904Y-98639380D01*
X107434095Y-98639380D01*
X107862666Y-99639380D02*
X107862666Y-98639380D01*
X108434095Y-99639380D01*
X108434095Y-98639380D01*
X106934095Y-96099380D02*
X107553142Y-96099380D01*
X107219809Y-96480333D01*
X107362666Y-96480333D01*
X107457904Y-96527952D01*
X107505523Y-96575571D01*
X107553142Y-96670809D01*
X107553142Y-96908904D01*
X107505523Y-97004142D01*
X107457904Y-97051761D01*
X107362666Y-97099380D01*
X107076952Y-97099380D01*
X106981714Y-97051761D01*
X106934095Y-97004142D01*
X107838857Y-96099380D02*
X108172190Y-97099380D01*
X108505523Y-96099380D01*
X107957904Y-93607000D02*
X107862666Y-93559380D01*
X107719809Y-93559380D01*
X107576952Y-93607000D01*
X107481714Y-93702238D01*
X107434095Y-93797476D01*
X107386476Y-93987952D01*
X107386476Y-94130809D01*
X107434095Y-94321285D01*
X107481714Y-94416523D01*
X107576952Y-94511761D01*
X107719809Y-94559380D01*
X107815047Y-94559380D01*
X107957904Y-94511761D01*
X108005523Y-94464142D01*
X108005523Y-94130809D01*
X107815047Y-94130809D01*
X106910285Y-91971761D02*
X107053142Y-92019380D01*
X107291238Y-92019380D01*
X107386476Y-91971761D01*
X107434095Y-91924142D01*
X107481714Y-91828904D01*
X107481714Y-91733666D01*
X107434095Y-91638428D01*
X107386476Y-91590809D01*
X107291238Y-91543190D01*
X107100761Y-91495571D01*
X107005523Y-91447952D01*
X106957904Y-91400333D01*
X106910285Y-91305095D01*
X106910285Y-91209857D01*
X106957904Y-91114619D01*
X107005523Y-91067000D01*
X107100761Y-91019380D01*
X107338857Y-91019380D01*
X107481714Y-91067000D01*
X107910285Y-92019380D02*
X107910285Y-91019380D01*
X108481714Y-92019380D02*
X108053142Y-91447952D01*
X108481714Y-91019380D02*
X107910285Y-91590809D01*
X106886476Y-89431761D02*
X107029333Y-89479380D01*
X107267428Y-89479380D01*
X107362666Y-89431761D01*
X107410285Y-89384142D01*
X107457904Y-89288904D01*
X107457904Y-89193666D01*
X107410285Y-89098428D01*
X107362666Y-89050809D01*
X107267428Y-89003190D01*
X107076952Y-88955571D01*
X106981714Y-88907952D01*
X106934095Y-88860333D01*
X106886476Y-88765095D01*
X106886476Y-88669857D01*
X106934095Y-88574619D01*
X106981714Y-88527000D01*
X107076952Y-88479380D01*
X107315047Y-88479380D01*
X107457904Y-88527000D01*
X108076952Y-88479380D02*
X108267428Y-88479380D01*
X108362666Y-88527000D01*
X108457904Y-88622238D01*
X108505523Y-88812714D01*
X108505523Y-89146047D01*
X108457904Y-89336523D01*
X108362666Y-89431761D01*
X108267428Y-89479380D01*
X108076952Y-89479380D01*
X107981714Y-89431761D01*
X107886476Y-89336523D01*
X107838857Y-89146047D01*
X107838857Y-88812714D01*
X107886476Y-88622238D01*
X107981714Y-88527000D01*
X108076952Y-88479380D01*
X106910285Y-86891761D02*
X107053142Y-86939380D01*
X107291238Y-86939380D01*
X107386476Y-86891761D01*
X107434095Y-86844142D01*
X107481714Y-86748904D01*
X107481714Y-86653666D01*
X107434095Y-86558428D01*
X107386476Y-86510809D01*
X107291238Y-86463190D01*
X107100761Y-86415571D01*
X107005523Y-86367952D01*
X106957904Y-86320333D01*
X106910285Y-86225095D01*
X106910285Y-86129857D01*
X106957904Y-86034619D01*
X107005523Y-85987000D01*
X107100761Y-85939380D01*
X107338857Y-85939380D01*
X107481714Y-85987000D01*
X108481714Y-86844142D02*
X108434095Y-86891761D01*
X108291238Y-86939380D01*
X108196000Y-86939380D01*
X108053142Y-86891761D01*
X107957904Y-86796523D01*
X107910285Y-86701285D01*
X107862666Y-86510809D01*
X107862666Y-86367952D01*
X107910285Y-86177476D01*
X107957904Y-86082238D01*
X108053142Y-85987000D01*
X108196000Y-85939380D01*
X108291238Y-85939380D01*
X108434095Y-85987000D01*
X108481714Y-86034619D01*
X106934095Y-84351761D02*
X107076952Y-84399380D01*
X107315047Y-84399380D01*
X107410285Y-84351761D01*
X107457904Y-84304142D01*
X107505523Y-84208904D01*
X107505523Y-84113666D01*
X107457904Y-84018428D01*
X107410285Y-83970809D01*
X107315047Y-83923190D01*
X107124571Y-83875571D01*
X107029333Y-83827952D01*
X106981714Y-83780333D01*
X106934095Y-83685095D01*
X106934095Y-83589857D01*
X106981714Y-83494619D01*
X107029333Y-83447000D01*
X107124571Y-83399380D01*
X107362666Y-83399380D01*
X107505523Y-83447000D01*
X108457904Y-84399380D02*
X107886476Y-84399380D01*
X108172190Y-84399380D02*
X108172190Y-83399380D01*
X108076952Y-83542238D01*
X107981714Y-83637476D01*
X107886476Y-83685095D01*
X106934095Y-81811761D02*
X107076952Y-81859380D01*
X107315047Y-81859380D01*
X107410285Y-81811761D01*
X107457904Y-81764142D01*
X107505523Y-81668904D01*
X107505523Y-81573666D01*
X107457904Y-81478428D01*
X107410285Y-81430809D01*
X107315047Y-81383190D01*
X107124571Y-81335571D01*
X107029333Y-81287952D01*
X106981714Y-81240333D01*
X106934095Y-81145095D01*
X106934095Y-81049857D01*
X106981714Y-80954619D01*
X107029333Y-80907000D01*
X107124571Y-80859380D01*
X107362666Y-80859380D01*
X107505523Y-80907000D01*
X107886476Y-80954619D02*
X107934095Y-80907000D01*
X108029333Y-80859380D01*
X108267428Y-80859380D01*
X108362666Y-80907000D01*
X108410285Y-80954619D01*
X108457904Y-81049857D01*
X108457904Y-81145095D01*
X108410285Y-81287952D01*
X107838857Y-81859380D01*
X108457904Y-81859380D01*
X106934095Y-79271761D02*
X107076952Y-79319380D01*
X107315047Y-79319380D01*
X107410285Y-79271761D01*
X107457904Y-79224142D01*
X107505523Y-79128904D01*
X107505523Y-79033666D01*
X107457904Y-78938428D01*
X107410285Y-78890809D01*
X107315047Y-78843190D01*
X107124571Y-78795571D01*
X107029333Y-78747952D01*
X106981714Y-78700333D01*
X106934095Y-78605095D01*
X106934095Y-78509857D01*
X106981714Y-78414619D01*
X107029333Y-78367000D01*
X107124571Y-78319380D01*
X107362666Y-78319380D01*
X107505523Y-78367000D01*
X107838857Y-78319380D02*
X108457904Y-78319380D01*
X108124571Y-78700333D01*
X108267428Y-78700333D01*
X108362666Y-78747952D01*
X108410285Y-78795571D01*
X108457904Y-78890809D01*
X108457904Y-79128904D01*
X108410285Y-79224142D01*
X108362666Y-79271761D01*
X108267428Y-79319380D01*
X107981714Y-79319380D01*
X107886476Y-79271761D01*
X107838857Y-79224142D01*
X106838857Y-75779380D02*
X107172190Y-76779380D01*
X107505523Y-75779380D01*
X107838857Y-75779380D02*
X107838857Y-76588904D01*
X107886476Y-76684142D01*
X107934095Y-76731761D01*
X108029333Y-76779380D01*
X108219809Y-76779380D01*
X108315047Y-76731761D01*
X108362666Y-76684142D01*
X108410285Y-76588904D01*
X108410285Y-75779380D01*
X107957904Y-73287000D02*
X107862666Y-73239380D01*
X107719809Y-73239380D01*
X107576952Y-73287000D01*
X107481714Y-73382238D01*
X107434095Y-73477476D01*
X107386476Y-73667952D01*
X107386476Y-73810809D01*
X107434095Y-74001285D01*
X107481714Y-74096523D01*
X107576952Y-74191761D01*
X107719809Y-74239380D01*
X107815047Y-74239380D01*
X107957904Y-74191761D01*
X108005523Y-74144142D01*
X108005523Y-73810809D01*
X107815047Y-73810809D01*
X106981714Y-71413666D02*
X107457904Y-71413666D01*
X106886476Y-71699380D02*
X107219809Y-70699380D01*
X107553142Y-71699380D01*
X108076952Y-70699380D02*
X108172190Y-70699380D01*
X108267428Y-70747000D01*
X108315047Y-70794619D01*
X108362666Y-70889857D01*
X108410285Y-71080333D01*
X108410285Y-71318428D01*
X108362666Y-71508904D01*
X108315047Y-71604142D01*
X108267428Y-71651761D01*
X108172190Y-71699380D01*
X108076952Y-71699380D01*
X107981714Y-71651761D01*
X107934095Y-71604142D01*
X107886476Y-71508904D01*
X107838857Y-71318428D01*
X107838857Y-71080333D01*
X107886476Y-70889857D01*
X107934095Y-70794619D01*
X107981714Y-70747000D01*
X108076952Y-70699380D01*
X129794095Y-106259380D02*
X130413142Y-106259380D01*
X130079809Y-106640333D01*
X130222666Y-106640333D01*
X130317904Y-106687952D01*
X130365523Y-106735571D01*
X130413142Y-106830809D01*
X130413142Y-107068904D01*
X130365523Y-107164142D01*
X130317904Y-107211761D01*
X130222666Y-107259380D01*
X129936952Y-107259380D01*
X129841714Y-107211761D01*
X129794095Y-107164142D01*
X130698857Y-106259380D02*
X131032190Y-107259380D01*
X131365523Y-106259380D01*
X130817904Y-103767000D02*
X130722666Y-103719380D01*
X130579809Y-103719380D01*
X130436952Y-103767000D01*
X130341714Y-103862238D01*
X130294095Y-103957476D01*
X130246476Y-104147952D01*
X130246476Y-104290809D01*
X130294095Y-104481285D01*
X130341714Y-104576523D01*
X130436952Y-104671761D01*
X130579809Y-104719380D01*
X130675047Y-104719380D01*
X130817904Y-104671761D01*
X130865523Y-104624142D01*
X130865523Y-104290809D01*
X130675047Y-104290809D01*
X129794095Y-101179380D02*
X130365523Y-101179380D01*
X130079809Y-102179380D02*
X130079809Y-101179380D01*
X130603619Y-101179380D02*
X131270285Y-102179380D01*
X131270285Y-101179380D02*
X130603619Y-102179380D01*
X130389333Y-99639380D02*
X130056000Y-99163190D01*
X129817904Y-99639380D02*
X129817904Y-98639380D01*
X130198857Y-98639380D01*
X130294095Y-98687000D01*
X130341714Y-98734619D01*
X130389333Y-98829857D01*
X130389333Y-98972714D01*
X130341714Y-99067952D01*
X130294095Y-99115571D01*
X130198857Y-99163190D01*
X129817904Y-99163190D01*
X130722666Y-98639380D02*
X131389333Y-99639380D01*
X131389333Y-98639380D02*
X130722666Y-99639380D01*
X129817904Y-97099380D02*
X129817904Y-96099380D01*
X130056000Y-96099380D01*
X130198857Y-96147000D01*
X130294095Y-96242238D01*
X130341714Y-96337476D01*
X130389333Y-96527952D01*
X130389333Y-96670809D01*
X130341714Y-96861285D01*
X130294095Y-96956523D01*
X130198857Y-97051761D01*
X130056000Y-97099380D01*
X129817904Y-97099380D01*
X130960761Y-96527952D02*
X130865523Y-96480333D01*
X130817904Y-96432714D01*
X130770285Y-96337476D01*
X130770285Y-96289857D01*
X130817904Y-96194619D01*
X130865523Y-96147000D01*
X130960761Y-96099380D01*
X131151238Y-96099380D01*
X131246476Y-96147000D01*
X131294095Y-96194619D01*
X131341714Y-96289857D01*
X131341714Y-96337476D01*
X131294095Y-96432714D01*
X131246476Y-96480333D01*
X131151238Y-96527952D01*
X130960761Y-96527952D01*
X130865523Y-96575571D01*
X130817904Y-96623190D01*
X130770285Y-96718428D01*
X130770285Y-96908904D01*
X130817904Y-97004142D01*
X130865523Y-97051761D01*
X130960761Y-97099380D01*
X131151238Y-97099380D01*
X131246476Y-97051761D01*
X131294095Y-97004142D01*
X131341714Y-96908904D01*
X131341714Y-96718428D01*
X131294095Y-96623190D01*
X131246476Y-96575571D01*
X131151238Y-96527952D01*
X129817904Y-94559380D02*
X129817904Y-93559380D01*
X130056000Y-93559380D01*
X130198857Y-93607000D01*
X130294095Y-93702238D01*
X130341714Y-93797476D01*
X130389333Y-93987952D01*
X130389333Y-94130809D01*
X130341714Y-94321285D01*
X130294095Y-94416523D01*
X130198857Y-94511761D01*
X130056000Y-94559380D01*
X129817904Y-94559380D01*
X130722666Y-93559380D02*
X131389333Y-93559380D01*
X130960761Y-94559380D01*
X129817904Y-92019380D02*
X129817904Y-91019380D01*
X130056000Y-91019380D01*
X130198857Y-91067000D01*
X130294095Y-91162238D01*
X130341714Y-91257476D01*
X130389333Y-91447952D01*
X130389333Y-91590809D01*
X130341714Y-91781285D01*
X130294095Y-91876523D01*
X130198857Y-91971761D01*
X130056000Y-92019380D01*
X129817904Y-92019380D01*
X131246476Y-91019380D02*
X131056000Y-91019380D01*
X130960761Y-91067000D01*
X130913142Y-91114619D01*
X130817904Y-91257476D01*
X130770285Y-91447952D01*
X130770285Y-91828904D01*
X130817904Y-91924142D01*
X130865523Y-91971761D01*
X130960761Y-92019380D01*
X131151238Y-92019380D01*
X131246476Y-91971761D01*
X131294095Y-91924142D01*
X131341714Y-91828904D01*
X131341714Y-91590809D01*
X131294095Y-91495571D01*
X131246476Y-91447952D01*
X131151238Y-91400333D01*
X130960761Y-91400333D01*
X130865523Y-91447952D01*
X130817904Y-91495571D01*
X130770285Y-91590809D01*
X129817904Y-89479380D02*
X129817904Y-88479380D01*
X130056000Y-88479380D01*
X130198857Y-88527000D01*
X130294095Y-88622238D01*
X130341714Y-88717476D01*
X130389333Y-88907952D01*
X130389333Y-89050809D01*
X130341714Y-89241285D01*
X130294095Y-89336523D01*
X130198857Y-89431761D01*
X130056000Y-89479380D01*
X129817904Y-89479380D01*
X131294095Y-88479380D02*
X130817904Y-88479380D01*
X130770285Y-88955571D01*
X130817904Y-88907952D01*
X130913142Y-88860333D01*
X131151238Y-88860333D01*
X131246476Y-88907952D01*
X131294095Y-88955571D01*
X131341714Y-89050809D01*
X131341714Y-89288904D01*
X131294095Y-89384142D01*
X131246476Y-89431761D01*
X131151238Y-89479380D01*
X130913142Y-89479380D01*
X130817904Y-89431761D01*
X130770285Y-89384142D01*
X130817904Y-85987000D02*
X130722666Y-85939380D01*
X130579809Y-85939380D01*
X130436952Y-85987000D01*
X130341714Y-86082238D01*
X130294095Y-86177476D01*
X130246476Y-86367952D01*
X130246476Y-86510809D01*
X130294095Y-86701285D01*
X130341714Y-86796523D01*
X130436952Y-86891761D01*
X130579809Y-86939380D01*
X130675047Y-86939380D01*
X130817904Y-86891761D01*
X130865523Y-86844142D01*
X130865523Y-86510809D01*
X130675047Y-86510809D01*
X129794095Y-83399380D02*
X130413142Y-83399380D01*
X130079809Y-83780333D01*
X130222666Y-83780333D01*
X130317904Y-83827952D01*
X130365523Y-83875571D01*
X130413142Y-83970809D01*
X130413142Y-84208904D01*
X130365523Y-84304142D01*
X130317904Y-84351761D01*
X130222666Y-84399380D01*
X129936952Y-84399380D01*
X129841714Y-84351761D01*
X129794095Y-84304142D01*
X130698857Y-83399380D02*
X131032190Y-84399380D01*
X131365523Y-83399380D01*
X129817904Y-81859380D02*
X129817904Y-80859380D01*
X130056000Y-80859380D01*
X130198857Y-80907000D01*
X130294095Y-81002238D01*
X130341714Y-81097476D01*
X130389333Y-81287952D01*
X130389333Y-81430809D01*
X130341714Y-81621285D01*
X130294095Y-81716523D01*
X130198857Y-81811761D01*
X130056000Y-81859380D01*
X129817904Y-81859380D01*
X131246476Y-81192714D02*
X131246476Y-81859380D01*
X131008380Y-80811761D02*
X130770285Y-81526047D01*
X131389333Y-81526047D01*
X129817904Y-79319380D02*
X129817904Y-78319380D01*
X130056000Y-78319380D01*
X130198857Y-78367000D01*
X130294095Y-78462238D01*
X130341714Y-78557476D01*
X130389333Y-78747952D01*
X130389333Y-78890809D01*
X130341714Y-79081285D01*
X130294095Y-79176523D01*
X130198857Y-79271761D01*
X130056000Y-79319380D01*
X129817904Y-79319380D01*
X130722666Y-78319380D02*
X131341714Y-78319380D01*
X131008380Y-78700333D01*
X131151238Y-78700333D01*
X131246476Y-78747952D01*
X131294095Y-78795571D01*
X131341714Y-78890809D01*
X131341714Y-79128904D01*
X131294095Y-79224142D01*
X131246476Y-79271761D01*
X131151238Y-79319380D01*
X130865523Y-79319380D01*
X130770285Y-79271761D01*
X130722666Y-79224142D01*
X129817904Y-76779380D02*
X129817904Y-75779380D01*
X130056000Y-75779380D01*
X130198857Y-75827000D01*
X130294095Y-75922238D01*
X130341714Y-76017476D01*
X130389333Y-76207952D01*
X130389333Y-76350809D01*
X130341714Y-76541285D01*
X130294095Y-76636523D01*
X130198857Y-76731761D01*
X130056000Y-76779380D01*
X129817904Y-76779380D01*
X130770285Y-75874619D02*
X130817904Y-75827000D01*
X130913142Y-75779380D01*
X131151238Y-75779380D01*
X131246476Y-75827000D01*
X131294095Y-75874619D01*
X131341714Y-75969857D01*
X131341714Y-76065095D01*
X131294095Y-76207952D01*
X130722666Y-76779380D01*
X131341714Y-76779380D01*
X129817904Y-74239380D02*
X129817904Y-73239380D01*
X130056000Y-73239380D01*
X130198857Y-73287000D01*
X130294095Y-73382238D01*
X130341714Y-73477476D01*
X130389333Y-73667952D01*
X130389333Y-73810809D01*
X130341714Y-74001285D01*
X130294095Y-74096523D01*
X130198857Y-74191761D01*
X130056000Y-74239380D01*
X129817904Y-74239380D01*
X131341714Y-74239380D02*
X130770285Y-74239380D01*
X131056000Y-74239380D02*
X131056000Y-73239380D01*
X130960761Y-73382238D01*
X130865523Y-73477476D01*
X130770285Y-73525095D01*
X129817904Y-71699380D02*
X129817904Y-70699380D01*
X130056000Y-70699380D01*
X130198857Y-70747000D01*
X130294095Y-70842238D01*
X130341714Y-70937476D01*
X130389333Y-71127952D01*
X130389333Y-71270809D01*
X130341714Y-71461285D01*
X130294095Y-71556523D01*
X130198857Y-71651761D01*
X130056000Y-71699380D01*
X129817904Y-71699380D01*
X131008380Y-70699380D02*
X131103619Y-70699380D01*
X131198857Y-70747000D01*
X131246476Y-70794619D01*
X131294095Y-70889857D01*
X131341714Y-71080333D01*
X131341714Y-71318428D01*
X131294095Y-71508904D01*
X131246476Y-71604142D01*
X131198857Y-71651761D01*
X131103619Y-71699380D01*
X131008380Y-71699380D01*
X130913142Y-71651761D01*
X130865523Y-71604142D01*
X130817904Y-71508904D01*
X130770285Y-71318428D01*
X130770285Y-71080333D01*
X130817904Y-70889857D01*
X130865523Y-70794619D01*
X130913142Y-70747000D01*
X131008380Y-70699380D01*
G04 #@! TO.C,C1*
X133813333Y-122047142D02*
X133765714Y-122094761D01*
X133622857Y-122142380D01*
X133527619Y-122142380D01*
X133384761Y-122094761D01*
X133289523Y-121999523D01*
X133241904Y-121904285D01*
X133194285Y-121713809D01*
X133194285Y-121570952D01*
X133241904Y-121380476D01*
X133289523Y-121285238D01*
X133384761Y-121190000D01*
X133527619Y-121142380D01*
X133622857Y-121142380D01*
X133765714Y-121190000D01*
X133813333Y-121237619D01*
X134765714Y-122142380D02*
X134194285Y-122142380D01*
X134480000Y-122142380D02*
X134480000Y-121142380D01*
X134384761Y-121285238D01*
X134289523Y-121380476D01*
X134194285Y-121428095D01*
G04 #@! TD*
M02*
