M48
;DRILL file {KiCad (5.0.2)-1} date 12/05/2019 16:03:00
;FORMAT={-:-/ absolute / inch / decimal}
FMAT,2
INCH,TZ
T1C0.0157
T2C0.0276
T3C0.0300
T4C0.0315
T5C0.0354
T6C0.0394
T7C0.0433
T8C0.0472
T9C0.0512
T10C0.0598
%
G90
G05
T1
X4.55Y-2.8
X4.855Y-2.805
X5.65Y-3.
T2
X5.85Y-4.155
X5.85Y-4.455
X6.Y-4.155
X6.Y-4.455
X6.135Y-3.45
X6.435Y-3.45
X5.705Y-4.155
X5.705Y-4.455
T3
X4.14Y-2.805
X4.14Y-2.905
X4.14Y-3.005
X4.14Y-3.105
X4.14Y-3.205
X4.14Y-3.305
X4.14Y-3.405
X4.14Y-3.505
X4.14Y-3.605
X4.14Y-3.705
X4.14Y-3.805
X4.14Y-3.905
X4.14Y-4.005
X4.14Y-4.105
X4.14Y-4.205
X5.24Y-2.805
X5.24Y-2.905
X5.24Y-3.005
X5.24Y-3.105
X5.24Y-3.205
X5.24Y-3.305
X5.24Y-3.405
X5.24Y-3.505
X5.24Y-3.605
X5.24Y-3.705
X5.24Y-3.805
X5.24Y-3.905
X5.24Y-4.005
X5.24Y-4.105
X5.24Y-4.205
T4
X5.2Y-5.
X5.3496Y-5.
T5
X5.85Y-3.795
X5.9524Y-3.795
X6.0547Y-3.795
X6.75Y-3.1753
X6.75Y-3.2776
X6.75Y-3.38
T7
X5.585Y-4.7
X5.985Y-4.7
X6.4Y-3.8
X6.8Y-3.8
X5.585Y-4.85
X5.985Y-4.85
T8
X5.8Y-5.3173
X5.9Y-5.3173
X5.5255Y-5.3173
X5.6255Y-5.3173
X5.54Y-2.575
X5.64Y-2.575
X5.74Y-2.575
X5.84Y-2.575
X5.94Y-2.575
X6.04Y-2.575
X6.14Y-2.575
X6.24Y-2.575
X6.34Y-2.575
X6.44Y-2.575
X6.54Y-2.575
X6.64Y-2.575
X6.74Y-2.575
X6.84Y-2.575
T9
X6.3638Y-4.1787
X6.3638Y-4.6591
X6.6Y-4.1
X6.8362Y-4.1787
X6.8362Y-4.6591
T10
X6.4Y-5.305
X6.6Y-5.305
X6.8Y-5.305
T6
X4.1818Y-4.9219G85X4.1582Y-4.9219
G05
X4.1818Y-5.1581G85X4.1582Y-5.1581
G05
X4.355Y-5.0518G85X4.355Y-5.0282
G05
T0
M30
