G04 #@! TF.GenerationSoftware,KiCad,Pcbnew,(5.0.2)-1*
G04 #@! TF.CreationDate,2019-05-12T16:02:16+10:00*
G04 #@! TF.ProjectId,DTC,4454432e-6b69-4636-9164-5f7063625858,rev?*
G04 #@! TF.SameCoordinates,Original*
G04 #@! TF.FileFunction,Copper,L1,Top*
G04 #@! TF.FilePolarity,Positive*
%FSLAX46Y46*%
G04 Gerber Fmt 4.6, Leading zero omitted, Abs format (unit mm)*
G04 Created by KiCad (PCBNEW (5.0.2)-1) date 12/05/2019 16:02:16*
%MOMM*%
%LPD*%
G01*
G04 APERTURE LIST*
G04 #@! TA.AperFunction,NonConductor*
%ADD10C,0.150000*%
G04 #@! TD*
G04 #@! TA.AperFunction,ComponentPad*
%ADD11O,2.200000X2.200000*%
G04 #@! TD*
G04 #@! TA.AperFunction,ComponentPad*
%ADD12R,2.200000X2.200000*%
G04 #@! TD*
G04 #@! TA.AperFunction,ComponentPad*
%ADD13O,2.000000X2.600000*%
G04 #@! TD*
G04 #@! TA.AperFunction,ComponentPad*
%ADD14R,2.000000X2.600000*%
G04 #@! TD*
G04 #@! TA.AperFunction,ComponentPad*
%ADD15R,2.600000X2.000000*%
G04 #@! TD*
G04 #@! TA.AperFunction,ComponentPad*
%ADD16C,3.000000*%
G04 #@! TD*
G04 #@! TA.AperFunction,ComponentPad*
%ADD17R,3.000000X3.000000*%
G04 #@! TD*
G04 #@! TA.AperFunction,ComponentPad*
%ADD18O,2.500000X2.500000*%
G04 #@! TD*
G04 #@! TA.AperFunction,ComponentPad*
%ADD19R,2.500000X2.500000*%
G04 #@! TD*
G04 #@! TA.AperFunction,ComponentPad*
%ADD20C,1.500000*%
G04 #@! TD*
G04 #@! TA.AperFunction,ComponentPad*
%ADD21R,1.500000X1.500000*%
G04 #@! TD*
G04 #@! TA.AperFunction,ComponentPad*
%ADD22O,1.400000X1.400000*%
G04 #@! TD*
G04 #@! TA.AperFunction,ComponentPad*
%ADD23C,1.400000*%
G04 #@! TD*
G04 #@! TA.AperFunction,ComponentPad*
%ADD24C,1.524000*%
G04 #@! TD*
G04 #@! TA.AperFunction,ComponentPad*
%ADD25C,1.600000*%
G04 #@! TD*
G04 #@! TA.AperFunction,ComponentPad*
%ADD26R,1.600000X1.600000*%
G04 #@! TD*
G04 #@! TA.AperFunction,ViaPad*
%ADD27C,1.000000*%
G04 #@! TD*
G04 #@! TA.AperFunction,Conductor*
%ADD28C,1.000000*%
G04 #@! TD*
G04 APERTURE END LIST*
D10*
X99060000Y-139700000D02*
X99060000Y-142240000D01*
X99060000Y-58420000D02*
X99060000Y-139700000D01*
X101600000Y-58420000D02*
X99060000Y-58420000D01*
X177800000Y-58420000D02*
X101600000Y-58420000D01*
X177800000Y-142240000D02*
X177800000Y-58420000D01*
X99060000Y-142240000D02*
X177800000Y-142240000D01*
D11*
G04 #@! TO.P,D1,2*
G04 #@! TO.N,Net-(D1-Pad2)*
X152019000Y-119380000D03*
D12*
G04 #@! TO.P,D1,1*
G04 #@! TO.N,Net-(D1-Pad1)*
X141859000Y-119380000D03*
G04 #@! TD*
G04 #@! TO.P,D2,1*
G04 #@! TO.N,Net-(D1-Pad1)*
X141859000Y-123190000D03*
D11*
G04 #@! TO.P,D2,2*
G04 #@! TO.N,Net-(D2-Pad2)*
X152019000Y-123190000D03*
G04 #@! TD*
G04 #@! TO.P,D3,2*
G04 #@! TO.N,Net-(D3-Pad2)*
X162560000Y-96520000D03*
D12*
G04 #@! TO.P,D3,1*
G04 #@! TO.N,Net-(C1-Pad1)*
X172720000Y-96520000D03*
G04 #@! TD*
D13*
G04 #@! TO.P,J1,14*
G04 #@! TO.N,Net-(J1-Pad11)*
X173736000Y-65405000D03*
G04 #@! TO.P,J1,13*
G04 #@! TO.N,Net-(C1-Pad2)*
X171196000Y-65405000D03*
G04 #@! TO.P,J1,12*
G04 #@! TO.N,Net-(J1-Pad12)*
X168656000Y-65405000D03*
G04 #@! TO.P,J1,11*
G04 #@! TO.N,Net-(J1-Pad11)*
X166116000Y-65405000D03*
G04 #@! TO.P,J1,10*
G04 #@! TO.N,Net-(J1-Pad10)*
X163576000Y-65405000D03*
G04 #@! TO.P,J1,9*
G04 #@! TO.N,Net-(J1-Pad3)*
X161036000Y-65405000D03*
G04 #@! TO.P,J1,8*
G04 #@! TO.N,Net-(J1-Pad5)*
X158496000Y-65405000D03*
G04 #@! TO.P,J1,7*
G04 #@! TO.N,Net-(J1-Pad11)*
X155956000Y-65405000D03*
G04 #@! TO.P,J1,6*
G04 #@! TO.N,Net-(J1-Pad2)*
X153416000Y-65405000D03*
G04 #@! TO.P,J1,5*
G04 #@! TO.N,Net-(J1-Pad5)*
X150876000Y-65405000D03*
G04 #@! TO.P,J1,4*
G04 #@! TO.N,Net-(J1-Pad4)*
X148336000Y-65405000D03*
G04 #@! TO.P,J1,3*
G04 #@! TO.N,Net-(J1-Pad3)*
X145796000Y-65405000D03*
G04 #@! TO.P,J1,2*
G04 #@! TO.N,Net-(J1-Pad2)*
X143256000Y-65405000D03*
D14*
G04 #@! TO.P,J1,1*
G04 #@! TO.N,Net-(J1-Pad1)*
X140716000Y-65405000D03*
G04 #@! TD*
D13*
G04 #@! TO.P,J2,2*
G04 #@! TO.N,Net-(D1-Pad2)*
X140346723Y-135058759D03*
D14*
G04 #@! TO.P,J2,1*
G04 #@! TO.N,Net-(C1-Pad2)*
X142886723Y-135058759D03*
G04 #@! TD*
G04 #@! TO.P,J3,1*
G04 #@! TO.N,Net-(D2-Pad2)*
X149860000Y-135058759D03*
D13*
G04 #@! TO.P,J3,2*
G04 #@! TO.N,Net-(C1-Pad2)*
X147320000Y-135058759D03*
G04 #@! TD*
D14*
G04 #@! TO.P,J4,3*
G04 #@! TO.N,Net-(C1-Pad1)*
X110618000Y-128016000D03*
D15*
G04 #@! TO.P,J4,1*
G04 #@! TO.N,Net-(J4-Pad1)*
X105918000Y-125016000D03*
G04 #@! TO.P,J4,2*
G04 #@! TO.N,Net-(C1-Pad2)*
X105918000Y-131016000D03*
G04 #@! TD*
D16*
G04 #@! TO.P,J5,3*
G04 #@! TO.N,Net-(J5-Pad3)*
X162560000Y-134747000D03*
G04 #@! TO.P,J5,2*
G04 #@! TO.N,Net-(J5-Pad2)*
X167640000Y-134747000D03*
D17*
G04 #@! TO.P,J5,1*
G04 #@! TO.N,Net-(J5-Pad1)*
X172720000Y-134747000D03*
G04 #@! TD*
D18*
G04 #@! TO.P,K1,5*
G04 #@! TO.N,Net-(C1-Pad1)*
X173640000Y-106140000D03*
G04 #@! TO.P,K1,4*
G04 #@! TO.N,Net-(J5-Pad1)*
X173640000Y-118340000D03*
G04 #@! TO.P,K1,3*
G04 #@! TO.N,Net-(J5-Pad3)*
X161640000Y-118340000D03*
G04 #@! TO.P,K1,2*
G04 #@! TO.N,Net-(D3-Pad2)*
X161640000Y-106140000D03*
D19*
G04 #@! TO.P,K1,1*
G04 #@! TO.N,Net-(J5-Pad2)*
X167640000Y-104140000D03*
G04 #@! TD*
D20*
G04 #@! TO.P,Q1,2*
G04 #@! TO.N,Net-(Q1-Pad2)*
X171450000Y-83252000D03*
G04 #@! TO.P,Q1,3*
G04 #@! TO.N,Net-(C1-Pad2)*
X171450000Y-80652000D03*
D21*
G04 #@! TO.P,Q1,1*
G04 #@! TO.N,Net-(D3-Pad2)*
X171450000Y-85852000D03*
G04 #@! TD*
G04 #@! TO.P,Q2,1*
G04 #@! TO.N,Net-(J1-Pad11)*
X148590000Y-96393000D03*
D20*
G04 #@! TO.P,Q2,3*
G04 #@! TO.N,Net-(Q2-Pad3)*
X153790000Y-96393000D03*
G04 #@! TO.P,Q2,2*
G04 #@! TO.N,Net-(Q2-Pad2)*
X151190000Y-96393000D03*
G04 #@! TD*
D22*
G04 #@! TO.P,R1,2*
G04 #@! TO.N,Net-(R1-Pad2)*
X155829000Y-87630000D03*
D23*
G04 #@! TO.P,R1,1*
G04 #@! TO.N,Net-(Q1-Pad2)*
X163449000Y-87630000D03*
G04 #@! TD*
G04 #@! TO.P,R2,1*
G04 #@! TO.N,Net-(Q2-Pad2)*
X148590000Y-105537000D03*
D22*
G04 #@! TO.P,R2,2*
G04 #@! TO.N,Net-(R2-Pad2)*
X148590000Y-113157000D03*
G04 #@! TD*
G04 #@! TO.P,R3,2*
G04 #@! TO.N,Net-(D1-Pad2)*
X144907000Y-113157000D03*
D23*
G04 #@! TO.P,R3,1*
G04 #@! TO.N,Net-(R2-Pad2)*
X144907000Y-105537000D03*
G04 #@! TD*
G04 #@! TO.P,R4,1*
G04 #@! TO.N,Net-(Q2-Pad3)*
X152400000Y-105537000D03*
D22*
G04 #@! TO.P,R4,2*
G04 #@! TO.N,Net-(D2-Pad2)*
X152400000Y-113157000D03*
G04 #@! TD*
D24*
G04 #@! TO.P,U1,1*
G04 #@! TO.N,Net-(D1-Pad1)*
X105156000Y-71247000D03*
G04 #@! TO.P,U1,2*
G04 #@! TO.N,Net-(U1-Pad2)*
X105156000Y-73787000D03*
G04 #@! TO.P,U1,3*
G04 #@! TO.N,Net-(U1-Pad3)*
X105156000Y-76327000D03*
G04 #@! TO.P,U1,4*
G04 #@! TO.N,Net-(U1-Pad4)*
X105156000Y-78867000D03*
G04 #@! TO.P,U1,5*
G04 #@! TO.N,Net-(U1-Pad5)*
X105156000Y-81407000D03*
G04 #@! TO.P,U1,6*
G04 #@! TO.N,Net-(U1-Pad6)*
X105156000Y-83947000D03*
G04 #@! TO.P,U1,7*
G04 #@! TO.N,Net-(U1-Pad7)*
X105156000Y-86487000D03*
G04 #@! TO.P,U1,8*
G04 #@! TO.N,Net-(U1-Pad8)*
X105156000Y-89027000D03*
G04 #@! TO.P,U1,9*
G04 #@! TO.N,Net-(U1-Pad9)*
X105156000Y-91567000D03*
G04 #@! TO.P,U1,10*
G04 #@! TO.N,Net-(U1-Pad10)*
X105156000Y-94107000D03*
G04 #@! TO.P,U1,11*
G04 #@! TO.N,Net-(U1-Pad11)*
X105156000Y-96647000D03*
G04 #@! TO.P,U1,12*
G04 #@! TO.N,Net-(U1-Pad12)*
X105156000Y-99187000D03*
G04 #@! TO.P,U1,13*
G04 #@! TO.N,Net-(U1-Pad13)*
X105156000Y-101727000D03*
G04 #@! TO.P,U1,14*
G04 #@! TO.N,Net-(C1-Pad2)*
X105156000Y-104267000D03*
G04 #@! TO.P,U1,15*
G04 #@! TO.N,Net-(C1-Pad1)*
X105156000Y-106807000D03*
G04 #@! TO.P,U1,16*
G04 #@! TO.N,Net-(J1-Pad11)*
X133096000Y-106807000D03*
G04 #@! TO.P,U1,17*
G04 #@! TO.N,Net-(C1-Pad2)*
X133096000Y-104267000D03*
G04 #@! TO.P,U1,18*
G04 #@! TO.N,Net-(U1-Pad18)*
X133096000Y-101727000D03*
G04 #@! TO.P,U1,19*
G04 #@! TO.N,Net-(U1-Pad19)*
X133096000Y-99187000D03*
G04 #@! TO.P,U1,20*
G04 #@! TO.N,Net-(J1-Pad12)*
X133096000Y-96647000D03*
G04 #@! TO.P,U1,21*
G04 #@! TO.N,Net-(J1-Pad3)*
X133096000Y-94107000D03*
G04 #@! TO.P,U1,22*
G04 #@! TO.N,Net-(J1-Pad2)*
X133096000Y-91567000D03*
G04 #@! TO.P,U1,23*
G04 #@! TO.N,Net-(J1-Pad5)*
X133096000Y-89027000D03*
G04 #@! TO.P,U1,24*
G04 #@! TO.N,Net-(C1-Pad2)*
X133096000Y-86487000D03*
G04 #@! TO.P,U1,25*
G04 #@! TO.N,Net-(U1-Pad25)*
X133096000Y-83947000D03*
G04 #@! TO.P,U1,26*
G04 #@! TO.N,Net-(J1-Pad10)*
X133096000Y-81407000D03*
G04 #@! TO.P,U1,27*
G04 #@! TO.N,Net-(R2-Pad2)*
X133096000Y-78867000D03*
G04 #@! TO.P,U1,28*
G04 #@! TO.N,Net-(J1-Pad4)*
X133096000Y-76327000D03*
G04 #@! TO.P,U1,29*
G04 #@! TO.N,Net-(J1-Pad1)*
X133096000Y-73787000D03*
G04 #@! TO.P,U1,30*
G04 #@! TO.N,Net-(R1-Pad2)*
X133096000Y-71247000D03*
G04 #@! TD*
D25*
G04 #@! TO.P,C1,2*
G04 #@! TO.N,Net-(C1-Pad2)*
X135880000Y-127000000D03*
D26*
G04 #@! TO.P,C1,1*
G04 #@! TO.N,Net-(C1-Pad1)*
X132080000Y-127000000D03*
G04 #@! TD*
D27*
G04 #@! TO.N,Net-(J1-Pad5)*
X143510000Y-76200000D03*
G04 #@! TO.N,Net-(R1-Pad2)*
X123317000Y-71247000D03*
X115570000Y-71120000D03*
G04 #@! TD*
D28*
G04 #@! TO.N,Net-(J1-Pad11)*
X148590000Y-78740000D02*
X148590000Y-95885000D01*
X155956000Y-65405000D02*
X155956000Y-71374000D01*
X155956000Y-71374000D02*
X148590000Y-78740000D01*
G04 #@! TO.N,Net-(J1-Pad3)*
X161036000Y-62230000D02*
X161036000Y-65405000D01*
X160020000Y-60960000D02*
X161036000Y-62230000D01*
X147320000Y-60960000D02*
X160020000Y-60960000D01*
X125857000Y-94107000D02*
X133096000Y-94107000D01*
X119380000Y-87630000D02*
X125857000Y-94107000D01*
X119380000Y-66040000D02*
X119380000Y-87630000D01*
X124460000Y-60960000D02*
X119380000Y-66040000D01*
X145796000Y-61214000D02*
X146050000Y-60960000D01*
X145796000Y-65405000D02*
X145796000Y-61214000D01*
X147320000Y-60960000D02*
X146050000Y-60960000D01*
X146050000Y-60960000D02*
X124460000Y-60960000D01*
G04 #@! TO.N,Net-(J1-Pad5)*
X139573000Y-89027000D02*
X133096000Y-89027000D01*
X143510000Y-85090000D02*
X139573000Y-89027000D01*
X143510000Y-75692000D02*
X143510000Y-76200000D01*
X150876000Y-65405000D02*
X150876000Y-68326000D01*
X150876000Y-68326000D02*
X149352000Y-69850000D01*
X149352000Y-69850000D02*
X143510000Y-75692000D01*
X158496000Y-65405000D02*
X158496000Y-66205000D01*
X143510000Y-76200000D02*
X143510000Y-85090000D01*
G04 #@! TO.N,Net-(J1-Pad2)*
X153416000Y-70104000D02*
X153416000Y-65405000D01*
X146050000Y-77470000D02*
X153416000Y-70104000D01*
X146050000Y-85090000D02*
X146050000Y-77470000D01*
X133096000Y-91567000D02*
X139573000Y-91567000D01*
X139573000Y-91567000D02*
X146050000Y-85090000D01*
G04 #@! TO.N,Net-(R1-Pad2)*
X133096000Y-71247000D02*
X123317000Y-71247000D01*
X123317000Y-71247000D02*
X123317000Y-71247000D01*
X115570000Y-71120000D02*
X115570000Y-71120000D01*
X115570000Y-99060000D02*
X115570000Y-71120000D01*
X155829000Y-105791000D02*
X153670000Y-107950000D01*
X153670000Y-107950000D02*
X140970000Y-107950000D01*
X140970000Y-107950000D02*
X139700000Y-109220000D01*
X139700000Y-109220000D02*
X125730000Y-109220000D01*
X155829000Y-87630000D02*
X155829000Y-105791000D01*
X125730000Y-109220000D02*
X115570000Y-99060000D01*
G04 #@! TO.N,Net-(C1-Pad1)*
X110109000Y-111760000D02*
X105156000Y-106807000D01*
X142240000Y-110490000D02*
X140970000Y-111760000D01*
X171450000Y-110490000D02*
X142240000Y-110490000D01*
X173640000Y-106521000D02*
X173640000Y-108300000D01*
X173640000Y-108300000D02*
X171450000Y-110490000D01*
X132080000Y-125200000D02*
X137160000Y-120120000D01*
X132080000Y-127000000D02*
X132080000Y-125200000D01*
X137160000Y-120120000D02*
X137160000Y-111760000D01*
X140970000Y-111760000D02*
X137160000Y-111760000D01*
X137160000Y-111760000D02*
X110109000Y-111760000D01*
G04 #@! TD*
M02*
