G04 #@! TF.GenerationSoftware,KiCad,Pcbnew,(5.0.2)-1*
G04 #@! TF.CreationDate,2019-05-12T16:02:17+10:00*
G04 #@! TF.ProjectId,DTC,4454432e-6b69-4636-9164-5f7063625858,rev?*
G04 #@! TF.SameCoordinates,Original*
G04 #@! TF.FileFunction,Soldermask,Bot*
G04 #@! TF.FilePolarity,Negative*
%FSLAX46Y46*%
G04 Gerber Fmt 4.6, Leading zero omitted, Abs format (unit mm)*
G04 Created by KiCad (PCBNEW (5.0.2)-1) date 12/05/2019 16:02:17*
%MOMM*%
%LPD*%
G01*
G04 APERTURE LIST*
%ADD10C,0.150000*%
%ADD11C,0.100000*%
G04 APERTURE END LIST*
D10*
X99060000Y-139700000D02*
X99060000Y-142240000D01*
X99060000Y-58420000D02*
X99060000Y-139700000D01*
X101600000Y-58420000D02*
X99060000Y-58420000D01*
X177800000Y-58420000D02*
X101600000Y-58420000D01*
X177800000Y-142240000D02*
X177800000Y-58420000D01*
X99060000Y-142240000D02*
X177800000Y-142240000D01*
D11*
G36*
X140552755Y-133722966D02*
X140750869Y-133783064D01*
X140933452Y-133880656D01*
X141093488Y-134011994D01*
X141224826Y-134172030D01*
X141270254Y-134257020D01*
X141322418Y-134354612D01*
X141352467Y-134453671D01*
X141382516Y-134552728D01*
X141397723Y-134707130D01*
X141397723Y-135410389D01*
X141382516Y-135564791D01*
X141322418Y-135762905D01*
X141224826Y-135945488D01*
X141219694Y-135951741D01*
X141093491Y-136105521D01*
X141093489Y-136105522D01*
X141093488Y-136105524D01*
X140933452Y-136236862D01*
X140750868Y-136334454D01*
X140552754Y-136394552D01*
X140346723Y-136414844D01*
X140140691Y-136394552D01*
X139942577Y-136334454D01*
X139759994Y-136236862D01*
X139619399Y-136121479D01*
X139599961Y-136105527D01*
X139599960Y-136105525D01*
X139599958Y-136105524D01*
X139468620Y-135945488D01*
X139371028Y-135762904D01*
X139310930Y-135564790D01*
X139295723Y-135410388D01*
X139295723Y-134707129D01*
X139310930Y-134552727D01*
X139350996Y-134420651D01*
X139371029Y-134354611D01*
X139468622Y-134172028D01*
X139599959Y-134011994D01*
X139759993Y-133880658D01*
X139759995Y-133880656D01*
X139942578Y-133783064D01*
X140140692Y-133722966D01*
X140346723Y-133702674D01*
X140552755Y-133722966D01*
X140552755Y-133722966D01*
G37*
G36*
X147526032Y-133722966D02*
X147724146Y-133783064D01*
X147906729Y-133880656D01*
X148066765Y-134011994D01*
X148198103Y-134172030D01*
X148243531Y-134257020D01*
X148295695Y-134354612D01*
X148325744Y-134453671D01*
X148355793Y-134552728D01*
X148371000Y-134707130D01*
X148371000Y-135410389D01*
X148355793Y-135564791D01*
X148295695Y-135762905D01*
X148198103Y-135945488D01*
X148192971Y-135951741D01*
X148066768Y-136105521D01*
X148066766Y-136105522D01*
X148066765Y-136105524D01*
X147906729Y-136236862D01*
X147724145Y-136334454D01*
X147526031Y-136394552D01*
X147320000Y-136414844D01*
X147113968Y-136394552D01*
X146915854Y-136334454D01*
X146733271Y-136236862D01*
X146592676Y-136121479D01*
X146573238Y-136105527D01*
X146573237Y-136105525D01*
X146573235Y-136105524D01*
X146441897Y-135945488D01*
X146344305Y-135762904D01*
X146284207Y-135564790D01*
X146269000Y-135410388D01*
X146269000Y-134707129D01*
X146284207Y-134552727D01*
X146324273Y-134420651D01*
X146344306Y-134354611D01*
X146441899Y-134172028D01*
X146573236Y-134011994D01*
X146733270Y-133880658D01*
X146733272Y-133880656D01*
X146915855Y-133783064D01*
X147113969Y-133722966D01*
X147320000Y-133702674D01*
X147526032Y-133722966D01*
X147526032Y-133722966D01*
G37*
G36*
X150911000Y-136409759D02*
X148809000Y-136409759D01*
X148809000Y-133707759D01*
X150911000Y-133707759D01*
X150911000Y-136409759D01*
X150911000Y-136409759D01*
G37*
G36*
X143937723Y-136409759D02*
X141835723Y-136409759D01*
X141835723Y-133707759D01*
X143937723Y-133707759D01*
X143937723Y-136409759D01*
X143937723Y-136409759D01*
G37*
G36*
X167992527Y-133235736D02*
X168092410Y-133255604D01*
X168374674Y-133372521D01*
X168628705Y-133542259D01*
X168844741Y-133758295D01*
X169014479Y-134012326D01*
X169080629Y-134172028D01*
X169131396Y-134294591D01*
X169182744Y-134552731D01*
X169191000Y-134594240D01*
X169191000Y-134899760D01*
X169131396Y-135199410D01*
X169014479Y-135481674D01*
X168844741Y-135735705D01*
X168628705Y-135951741D01*
X168374674Y-136121479D01*
X168092410Y-136238396D01*
X167992527Y-136258264D01*
X167792762Y-136298000D01*
X167487238Y-136298000D01*
X167287473Y-136258264D01*
X167187590Y-136238396D01*
X166905326Y-136121479D01*
X166651295Y-135951741D01*
X166435259Y-135735705D01*
X166265521Y-135481674D01*
X166148604Y-135199410D01*
X166089000Y-134899760D01*
X166089000Y-134594240D01*
X166097257Y-134552731D01*
X166148604Y-134294591D01*
X166199371Y-134172028D01*
X166265521Y-134012326D01*
X166435259Y-133758295D01*
X166651295Y-133542259D01*
X166905326Y-133372521D01*
X167187590Y-133255604D01*
X167287473Y-133235736D01*
X167487238Y-133196000D01*
X167792762Y-133196000D01*
X167992527Y-133235736D01*
X167992527Y-133235736D01*
G37*
G36*
X162912527Y-133235736D02*
X163012410Y-133255604D01*
X163294674Y-133372521D01*
X163548705Y-133542259D01*
X163764741Y-133758295D01*
X163934479Y-134012326D01*
X164000629Y-134172028D01*
X164051396Y-134294591D01*
X164102744Y-134552731D01*
X164111000Y-134594240D01*
X164111000Y-134899760D01*
X164051396Y-135199410D01*
X163934479Y-135481674D01*
X163764741Y-135735705D01*
X163548705Y-135951741D01*
X163294674Y-136121479D01*
X163012410Y-136238396D01*
X162912527Y-136258264D01*
X162712762Y-136298000D01*
X162407238Y-136298000D01*
X162207473Y-136258264D01*
X162107590Y-136238396D01*
X161825326Y-136121479D01*
X161571295Y-135951741D01*
X161355259Y-135735705D01*
X161185521Y-135481674D01*
X161068604Y-135199410D01*
X161009000Y-134899760D01*
X161009000Y-134594240D01*
X161017257Y-134552731D01*
X161068604Y-134294591D01*
X161119371Y-134172028D01*
X161185521Y-134012326D01*
X161355259Y-133758295D01*
X161571295Y-133542259D01*
X161825326Y-133372521D01*
X162107590Y-133255604D01*
X162207473Y-133235736D01*
X162407238Y-133196000D01*
X162712762Y-133196000D01*
X162912527Y-133235736D01*
X162912527Y-133235736D01*
G37*
G36*
X174271000Y-136298000D02*
X171169000Y-136298000D01*
X171169000Y-133196000D01*
X174271000Y-133196000D01*
X174271000Y-136298000D01*
X174271000Y-136298000D01*
G37*
G36*
X107269000Y-132067000D02*
X104567000Y-132067000D01*
X104567000Y-129965000D01*
X107269000Y-129965000D01*
X107269000Y-132067000D01*
X107269000Y-132067000D01*
G37*
G36*
X111669000Y-129367000D02*
X109567000Y-129367000D01*
X109567000Y-126665000D01*
X111669000Y-126665000D01*
X111669000Y-129367000D01*
X111669000Y-129367000D01*
G37*
G36*
X136128228Y-126181703D02*
X136283100Y-126245853D01*
X136422481Y-126338985D01*
X136541015Y-126457519D01*
X136634147Y-126596900D01*
X136698297Y-126751772D01*
X136731000Y-126916184D01*
X136731000Y-127083816D01*
X136698297Y-127248228D01*
X136634147Y-127403100D01*
X136541015Y-127542481D01*
X136422481Y-127661015D01*
X136283100Y-127754147D01*
X136128228Y-127818297D01*
X135963816Y-127851000D01*
X135796184Y-127851000D01*
X135631772Y-127818297D01*
X135476900Y-127754147D01*
X135337519Y-127661015D01*
X135218985Y-127542481D01*
X135125853Y-127403100D01*
X135061703Y-127248228D01*
X135029000Y-127083816D01*
X135029000Y-126916184D01*
X135061703Y-126751772D01*
X135125853Y-126596900D01*
X135218985Y-126457519D01*
X135337519Y-126338985D01*
X135476900Y-126245853D01*
X135631772Y-126181703D01*
X135796184Y-126149000D01*
X135963816Y-126149000D01*
X136128228Y-126181703D01*
X136128228Y-126181703D01*
G37*
G36*
X132931000Y-127851000D02*
X131229000Y-127851000D01*
X131229000Y-126149000D01*
X132931000Y-126149000D01*
X132931000Y-127851000D01*
X132931000Y-127851000D01*
G37*
G36*
X107269000Y-126067000D02*
X104567000Y-126067000D01*
X104567000Y-123965000D01*
X107269000Y-123965000D01*
X107269000Y-126067000D01*
X107269000Y-126067000D01*
G37*
G36*
X152143180Y-122045662D02*
X152244635Y-122055654D01*
X152461600Y-122121470D01*
X152461602Y-122121471D01*
X152461605Y-122121472D01*
X152661556Y-122228347D01*
X152836818Y-122372182D01*
X152980653Y-122547444D01*
X153087528Y-122747395D01*
X153087529Y-122747398D01*
X153087530Y-122747400D01*
X153153346Y-122964365D01*
X153175569Y-123190000D01*
X153153346Y-123415635D01*
X153087530Y-123632600D01*
X153087528Y-123632605D01*
X152980653Y-123832556D01*
X152836818Y-124007818D01*
X152661556Y-124151653D01*
X152461605Y-124258528D01*
X152461602Y-124258529D01*
X152461600Y-124258530D01*
X152244635Y-124324346D01*
X152143180Y-124334338D01*
X152075545Y-124341000D01*
X151962455Y-124341000D01*
X151894820Y-124334338D01*
X151793365Y-124324346D01*
X151576400Y-124258530D01*
X151576398Y-124258529D01*
X151576395Y-124258528D01*
X151376444Y-124151653D01*
X151201182Y-124007818D01*
X151057347Y-123832556D01*
X150950472Y-123632605D01*
X150950470Y-123632600D01*
X150884654Y-123415635D01*
X150862431Y-123190000D01*
X150884654Y-122964365D01*
X150950470Y-122747400D01*
X150950471Y-122747398D01*
X150950472Y-122747395D01*
X151057347Y-122547444D01*
X151201182Y-122372182D01*
X151376444Y-122228347D01*
X151576395Y-122121472D01*
X151576398Y-122121471D01*
X151576400Y-122121470D01*
X151793365Y-122055654D01*
X151894820Y-122045662D01*
X151962455Y-122039000D01*
X152075545Y-122039000D01*
X152143180Y-122045662D01*
X152143180Y-122045662D01*
G37*
G36*
X143010000Y-124341000D02*
X140708000Y-124341000D01*
X140708000Y-122039000D01*
X143010000Y-122039000D01*
X143010000Y-124341000D01*
X143010000Y-124341000D01*
G37*
G36*
X152143180Y-118235662D02*
X152244635Y-118245654D01*
X152461600Y-118311470D01*
X152461602Y-118311471D01*
X152461605Y-118311472D01*
X152661556Y-118418347D01*
X152836818Y-118562182D01*
X152980653Y-118737444D01*
X153087528Y-118937395D01*
X153087529Y-118937398D01*
X153087530Y-118937400D01*
X153153346Y-119154365D01*
X153175569Y-119380000D01*
X153153346Y-119605635D01*
X153087530Y-119822600D01*
X153087528Y-119822605D01*
X152980653Y-120022556D01*
X152836818Y-120197818D01*
X152661556Y-120341653D01*
X152461605Y-120448528D01*
X152461602Y-120448529D01*
X152461600Y-120448530D01*
X152244635Y-120514346D01*
X152143180Y-120524338D01*
X152075545Y-120531000D01*
X151962455Y-120531000D01*
X151894820Y-120524338D01*
X151793365Y-120514346D01*
X151576400Y-120448530D01*
X151576398Y-120448529D01*
X151576395Y-120448528D01*
X151376444Y-120341653D01*
X151201182Y-120197818D01*
X151057347Y-120022556D01*
X150950472Y-119822605D01*
X150950470Y-119822600D01*
X150884654Y-119605635D01*
X150862431Y-119380000D01*
X150884654Y-119154365D01*
X150950470Y-118937400D01*
X150950471Y-118937398D01*
X150950472Y-118937395D01*
X151057347Y-118737444D01*
X151201182Y-118562182D01*
X151376444Y-118418347D01*
X151576395Y-118311472D01*
X151576398Y-118311471D01*
X151576400Y-118311470D01*
X151793365Y-118245654D01*
X151894820Y-118235662D01*
X151962455Y-118229000D01*
X152075545Y-118229000D01*
X152143180Y-118235662D01*
X152143180Y-118235662D01*
G37*
G36*
X143010000Y-120531000D02*
X140708000Y-120531000D01*
X140708000Y-118229000D01*
X143010000Y-118229000D01*
X143010000Y-120531000D01*
X143010000Y-120531000D01*
G37*
G36*
X173751689Y-117043706D02*
X173895040Y-117057825D01*
X174140280Y-117132218D01*
X174140282Y-117132219D01*
X174366296Y-117253026D01*
X174564397Y-117415603D01*
X174726974Y-117613704D01*
X174726975Y-117613706D01*
X174847782Y-117839720D01*
X174922175Y-118084960D01*
X174947294Y-118340000D01*
X174922175Y-118595040D01*
X174847782Y-118840280D01*
X174847781Y-118840282D01*
X174726974Y-119066296D01*
X174564397Y-119264397D01*
X174366296Y-119426974D01*
X174366294Y-119426975D01*
X174140280Y-119547782D01*
X173895040Y-119622175D01*
X173751689Y-119636294D01*
X173703906Y-119641000D01*
X173576094Y-119641000D01*
X173528311Y-119636294D01*
X173384960Y-119622175D01*
X173139720Y-119547782D01*
X172913706Y-119426975D01*
X172913704Y-119426974D01*
X172715603Y-119264397D01*
X172553026Y-119066296D01*
X172432219Y-118840282D01*
X172432218Y-118840280D01*
X172357825Y-118595040D01*
X172332706Y-118340000D01*
X172357825Y-118084960D01*
X172432218Y-117839720D01*
X172553025Y-117613706D01*
X172553026Y-117613704D01*
X172715603Y-117415603D01*
X172913704Y-117253026D01*
X173139718Y-117132219D01*
X173139720Y-117132218D01*
X173384960Y-117057825D01*
X173528311Y-117043706D01*
X173576094Y-117039000D01*
X173703906Y-117039000D01*
X173751689Y-117043706D01*
X173751689Y-117043706D01*
G37*
G36*
X161751689Y-117043706D02*
X161895040Y-117057825D01*
X162140280Y-117132218D01*
X162140282Y-117132219D01*
X162366296Y-117253026D01*
X162564397Y-117415603D01*
X162726974Y-117613704D01*
X162726975Y-117613706D01*
X162847782Y-117839720D01*
X162922175Y-118084960D01*
X162947294Y-118340000D01*
X162922175Y-118595040D01*
X162847782Y-118840280D01*
X162847781Y-118840282D01*
X162726974Y-119066296D01*
X162564397Y-119264397D01*
X162366296Y-119426974D01*
X162366294Y-119426975D01*
X162140280Y-119547782D01*
X161895040Y-119622175D01*
X161751689Y-119636294D01*
X161703906Y-119641000D01*
X161576094Y-119641000D01*
X161528311Y-119636294D01*
X161384960Y-119622175D01*
X161139720Y-119547782D01*
X160913706Y-119426975D01*
X160913704Y-119426974D01*
X160715603Y-119264397D01*
X160553026Y-119066296D01*
X160432219Y-118840282D01*
X160432218Y-118840280D01*
X160357825Y-118595040D01*
X160332706Y-118340000D01*
X160357825Y-118084960D01*
X160432218Y-117839720D01*
X160553025Y-117613706D01*
X160553026Y-117613704D01*
X160715603Y-117415603D01*
X160913704Y-117253026D01*
X161139718Y-117132219D01*
X161139720Y-117132218D01*
X161384960Y-117057825D01*
X161528311Y-117043706D01*
X161576094Y-117039000D01*
X161703906Y-117039000D01*
X161751689Y-117043706D01*
X161751689Y-117043706D01*
G37*
G36*
X148663665Y-112409622D02*
X148737222Y-112416867D01*
X148878786Y-112459810D01*
X149009252Y-112529546D01*
X149123606Y-112623394D01*
X149217454Y-112737748D01*
X149287190Y-112868214D01*
X149330133Y-113009778D01*
X149344633Y-113157000D01*
X149330133Y-113304222D01*
X149287190Y-113445786D01*
X149217454Y-113576252D01*
X149123606Y-113690606D01*
X149009252Y-113784454D01*
X148878786Y-113854190D01*
X148737222Y-113897133D01*
X148663665Y-113904378D01*
X148626888Y-113908000D01*
X148553112Y-113908000D01*
X148516335Y-113904378D01*
X148442778Y-113897133D01*
X148301214Y-113854190D01*
X148170748Y-113784454D01*
X148056394Y-113690606D01*
X147962546Y-113576252D01*
X147892810Y-113445786D01*
X147849867Y-113304222D01*
X147835367Y-113157000D01*
X147849867Y-113009778D01*
X147892810Y-112868214D01*
X147962546Y-112737748D01*
X148056394Y-112623394D01*
X148170748Y-112529546D01*
X148301214Y-112459810D01*
X148442778Y-112416867D01*
X148516335Y-112409622D01*
X148553112Y-112406000D01*
X148626888Y-112406000D01*
X148663665Y-112409622D01*
X148663665Y-112409622D01*
G37*
G36*
X144980665Y-112409622D02*
X145054222Y-112416867D01*
X145195786Y-112459810D01*
X145326252Y-112529546D01*
X145440606Y-112623394D01*
X145534454Y-112737748D01*
X145604190Y-112868214D01*
X145647133Y-113009778D01*
X145661633Y-113157000D01*
X145647133Y-113304222D01*
X145604190Y-113445786D01*
X145534454Y-113576252D01*
X145440606Y-113690606D01*
X145326252Y-113784454D01*
X145195786Y-113854190D01*
X145054222Y-113897133D01*
X144980665Y-113904378D01*
X144943888Y-113908000D01*
X144870112Y-113908000D01*
X144833335Y-113904378D01*
X144759778Y-113897133D01*
X144618214Y-113854190D01*
X144487748Y-113784454D01*
X144373394Y-113690606D01*
X144279546Y-113576252D01*
X144209810Y-113445786D01*
X144166867Y-113304222D01*
X144152367Y-113157000D01*
X144166867Y-113009778D01*
X144209810Y-112868214D01*
X144279546Y-112737748D01*
X144373394Y-112623394D01*
X144487748Y-112529546D01*
X144618214Y-112459810D01*
X144759778Y-112416867D01*
X144833335Y-112409622D01*
X144870112Y-112406000D01*
X144943888Y-112406000D01*
X144980665Y-112409622D01*
X144980665Y-112409622D01*
G37*
G36*
X152473665Y-112409622D02*
X152547222Y-112416867D01*
X152688786Y-112459810D01*
X152819252Y-112529546D01*
X152933606Y-112623394D01*
X153027454Y-112737748D01*
X153097190Y-112868214D01*
X153140133Y-113009778D01*
X153154633Y-113157000D01*
X153140133Y-113304222D01*
X153097190Y-113445786D01*
X153027454Y-113576252D01*
X152933606Y-113690606D01*
X152819252Y-113784454D01*
X152688786Y-113854190D01*
X152547222Y-113897133D01*
X152473665Y-113904378D01*
X152436888Y-113908000D01*
X152363112Y-113908000D01*
X152326335Y-113904378D01*
X152252778Y-113897133D01*
X152111214Y-113854190D01*
X151980748Y-113784454D01*
X151866394Y-113690606D01*
X151772546Y-113576252D01*
X151702810Y-113445786D01*
X151659867Y-113304222D01*
X151645367Y-113157000D01*
X151659867Y-113009778D01*
X151702810Y-112868214D01*
X151772546Y-112737748D01*
X151866394Y-112623394D01*
X151980748Y-112529546D01*
X152111214Y-112459810D01*
X152252778Y-112416867D01*
X152326335Y-112409622D01*
X152363112Y-112406000D01*
X152436888Y-112406000D01*
X152473665Y-112409622D01*
X152473665Y-112409622D01*
G37*
G36*
X105393142Y-106025242D02*
X105541102Y-106086530D01*
X105674258Y-106175502D01*
X105787498Y-106288742D01*
X105876470Y-106421898D01*
X105937758Y-106569858D01*
X105969000Y-106726925D01*
X105969000Y-106887075D01*
X105937758Y-107044142D01*
X105876470Y-107192102D01*
X105831683Y-107259130D01*
X105787499Y-107325257D01*
X105674257Y-107438499D01*
X105608130Y-107482683D01*
X105541102Y-107527470D01*
X105393142Y-107588758D01*
X105236075Y-107620000D01*
X105075925Y-107620000D01*
X104918858Y-107588758D01*
X104770898Y-107527470D01*
X104703870Y-107482683D01*
X104637743Y-107438499D01*
X104524501Y-107325257D01*
X104480317Y-107259130D01*
X104435530Y-107192102D01*
X104374242Y-107044142D01*
X104343000Y-106887075D01*
X104343000Y-106726925D01*
X104374242Y-106569858D01*
X104435530Y-106421898D01*
X104524502Y-106288742D01*
X104637742Y-106175502D01*
X104770898Y-106086530D01*
X104918858Y-106025242D01*
X105075925Y-105994000D01*
X105236075Y-105994000D01*
X105393142Y-106025242D01*
X105393142Y-106025242D01*
G37*
G36*
X133333142Y-106025242D02*
X133481102Y-106086530D01*
X133614258Y-106175502D01*
X133727498Y-106288742D01*
X133816470Y-106421898D01*
X133877758Y-106569858D01*
X133909000Y-106726925D01*
X133909000Y-106887075D01*
X133877758Y-107044142D01*
X133816470Y-107192102D01*
X133771683Y-107259130D01*
X133727499Y-107325257D01*
X133614257Y-107438499D01*
X133548130Y-107482683D01*
X133481102Y-107527470D01*
X133333142Y-107588758D01*
X133176075Y-107620000D01*
X133015925Y-107620000D01*
X132858858Y-107588758D01*
X132710898Y-107527470D01*
X132643870Y-107482683D01*
X132577743Y-107438499D01*
X132464501Y-107325257D01*
X132420317Y-107259130D01*
X132375530Y-107192102D01*
X132314242Y-107044142D01*
X132283000Y-106887075D01*
X132283000Y-106726925D01*
X132314242Y-106569858D01*
X132375530Y-106421898D01*
X132464502Y-106288742D01*
X132577742Y-106175502D01*
X132710898Y-106086530D01*
X132858858Y-106025242D01*
X133015925Y-105994000D01*
X133176075Y-105994000D01*
X133333142Y-106025242D01*
X133333142Y-106025242D01*
G37*
G36*
X173751689Y-104843706D02*
X173895040Y-104857825D01*
X174140280Y-104932218D01*
X174140282Y-104932219D01*
X174366296Y-105053026D01*
X174564397Y-105215603D01*
X174726974Y-105413704D01*
X174726975Y-105413706D01*
X174847782Y-105639720D01*
X174922175Y-105884960D01*
X174947294Y-106140000D01*
X174922175Y-106395040D01*
X174869144Y-106569858D01*
X174847781Y-106640282D01*
X174726974Y-106866296D01*
X174564397Y-107064397D01*
X174366296Y-107226974D01*
X174140282Y-107347781D01*
X174140280Y-107347782D01*
X173895040Y-107422175D01*
X173751689Y-107436294D01*
X173703906Y-107441000D01*
X173576094Y-107441000D01*
X173528311Y-107436294D01*
X173384960Y-107422175D01*
X173139720Y-107347782D01*
X173139718Y-107347781D01*
X172913704Y-107226974D01*
X172715603Y-107064397D01*
X172553026Y-106866296D01*
X172432219Y-106640282D01*
X172410856Y-106569858D01*
X172357825Y-106395040D01*
X172332706Y-106140000D01*
X172357825Y-105884960D01*
X172432218Y-105639720D01*
X172553025Y-105413706D01*
X172553026Y-105413704D01*
X172715603Y-105215603D01*
X172913704Y-105053026D01*
X173139718Y-104932219D01*
X173139720Y-104932218D01*
X173384960Y-104857825D01*
X173528311Y-104843706D01*
X173576094Y-104839000D01*
X173703906Y-104839000D01*
X173751689Y-104843706D01*
X173751689Y-104843706D01*
G37*
G36*
X161751689Y-104843706D02*
X161895040Y-104857825D01*
X162140280Y-104932218D01*
X162140282Y-104932219D01*
X162366296Y-105053026D01*
X162564397Y-105215603D01*
X162726974Y-105413704D01*
X162726975Y-105413706D01*
X162847782Y-105639720D01*
X162922175Y-105884960D01*
X162947294Y-106140000D01*
X162922175Y-106395040D01*
X162869144Y-106569858D01*
X162847781Y-106640282D01*
X162726974Y-106866296D01*
X162564397Y-107064397D01*
X162366296Y-107226974D01*
X162140282Y-107347781D01*
X162140280Y-107347782D01*
X161895040Y-107422175D01*
X161751689Y-107436294D01*
X161703906Y-107441000D01*
X161576094Y-107441000D01*
X161528311Y-107436294D01*
X161384960Y-107422175D01*
X161139720Y-107347782D01*
X161139718Y-107347781D01*
X160913704Y-107226974D01*
X160715603Y-107064397D01*
X160553026Y-106866296D01*
X160432219Y-106640282D01*
X160410856Y-106569858D01*
X160357825Y-106395040D01*
X160332706Y-106140000D01*
X160357825Y-105884960D01*
X160432218Y-105639720D01*
X160553025Y-105413706D01*
X160553026Y-105413704D01*
X160715603Y-105215603D01*
X160913704Y-105053026D01*
X161139718Y-104932219D01*
X161139720Y-104932218D01*
X161384960Y-104857825D01*
X161528311Y-104843706D01*
X161576094Y-104839000D01*
X161703906Y-104839000D01*
X161751689Y-104843706D01*
X161751689Y-104843706D01*
G37*
G36*
X145039004Y-104797544D02*
X145126059Y-104814860D01*
X145262732Y-104871472D01*
X145353645Y-104932218D01*
X145385738Y-104953662D01*
X145490338Y-105058262D01*
X145490340Y-105058265D01*
X145572528Y-105181268D01*
X145629140Y-105317941D01*
X145646456Y-105404996D01*
X145653618Y-105441000D01*
X145658000Y-105463033D01*
X145658000Y-105610967D01*
X145629140Y-105756059D01*
X145572528Y-105892732D01*
X145572527Y-105892733D01*
X145490338Y-106015738D01*
X145385738Y-106120338D01*
X145385735Y-106120340D01*
X145262732Y-106202528D01*
X145126059Y-106259140D01*
X145039004Y-106276456D01*
X144980969Y-106288000D01*
X144833031Y-106288000D01*
X144774996Y-106276456D01*
X144687941Y-106259140D01*
X144551268Y-106202528D01*
X144428265Y-106120340D01*
X144428262Y-106120338D01*
X144323662Y-106015738D01*
X144241473Y-105892733D01*
X144241472Y-105892732D01*
X144184860Y-105756059D01*
X144156000Y-105610967D01*
X144156000Y-105463033D01*
X144160383Y-105441000D01*
X144167544Y-105404996D01*
X144184860Y-105317941D01*
X144241472Y-105181268D01*
X144323660Y-105058265D01*
X144323662Y-105058262D01*
X144428262Y-104953662D01*
X144460355Y-104932218D01*
X144551268Y-104871472D01*
X144687941Y-104814860D01*
X144774996Y-104797544D01*
X144833031Y-104786000D01*
X144980969Y-104786000D01*
X145039004Y-104797544D01*
X145039004Y-104797544D01*
G37*
G36*
X148722004Y-104797544D02*
X148809059Y-104814860D01*
X148945732Y-104871472D01*
X149036645Y-104932218D01*
X149068738Y-104953662D01*
X149173338Y-105058262D01*
X149173340Y-105058265D01*
X149255528Y-105181268D01*
X149312140Y-105317941D01*
X149329456Y-105404996D01*
X149336618Y-105441000D01*
X149341000Y-105463033D01*
X149341000Y-105610967D01*
X149312140Y-105756059D01*
X149255528Y-105892732D01*
X149255527Y-105892733D01*
X149173338Y-106015738D01*
X149068738Y-106120338D01*
X149068735Y-106120340D01*
X148945732Y-106202528D01*
X148809059Y-106259140D01*
X148722004Y-106276456D01*
X148663969Y-106288000D01*
X148516031Y-106288000D01*
X148457996Y-106276456D01*
X148370941Y-106259140D01*
X148234268Y-106202528D01*
X148111265Y-106120340D01*
X148111262Y-106120338D01*
X148006662Y-106015738D01*
X147924473Y-105892733D01*
X147924472Y-105892732D01*
X147867860Y-105756059D01*
X147839000Y-105610967D01*
X147839000Y-105463033D01*
X147843383Y-105441000D01*
X147850544Y-105404996D01*
X147867860Y-105317941D01*
X147924472Y-105181268D01*
X148006660Y-105058265D01*
X148006662Y-105058262D01*
X148111262Y-104953662D01*
X148143355Y-104932218D01*
X148234268Y-104871472D01*
X148370941Y-104814860D01*
X148457996Y-104797544D01*
X148516031Y-104786000D01*
X148663969Y-104786000D01*
X148722004Y-104797544D01*
X148722004Y-104797544D01*
G37*
G36*
X152532004Y-104797544D02*
X152619059Y-104814860D01*
X152755732Y-104871472D01*
X152846645Y-104932218D01*
X152878738Y-104953662D01*
X152983338Y-105058262D01*
X152983340Y-105058265D01*
X153065528Y-105181268D01*
X153122140Y-105317941D01*
X153139456Y-105404996D01*
X153146618Y-105441000D01*
X153151000Y-105463033D01*
X153151000Y-105610967D01*
X153122140Y-105756059D01*
X153065528Y-105892732D01*
X153065527Y-105892733D01*
X152983338Y-106015738D01*
X152878738Y-106120338D01*
X152878735Y-106120340D01*
X152755732Y-106202528D01*
X152619059Y-106259140D01*
X152532004Y-106276456D01*
X152473969Y-106288000D01*
X152326031Y-106288000D01*
X152267996Y-106276456D01*
X152180941Y-106259140D01*
X152044268Y-106202528D01*
X151921265Y-106120340D01*
X151921262Y-106120338D01*
X151816662Y-106015738D01*
X151734473Y-105892733D01*
X151734472Y-105892732D01*
X151677860Y-105756059D01*
X151649000Y-105610967D01*
X151649000Y-105463033D01*
X151653383Y-105441000D01*
X151660544Y-105404996D01*
X151677860Y-105317941D01*
X151734472Y-105181268D01*
X151816660Y-105058265D01*
X151816662Y-105058262D01*
X151921262Y-104953662D01*
X151953355Y-104932218D01*
X152044268Y-104871472D01*
X152180941Y-104814860D01*
X152267996Y-104797544D01*
X152326031Y-104786000D01*
X152473969Y-104786000D01*
X152532004Y-104797544D01*
X152532004Y-104797544D01*
G37*
G36*
X168941000Y-105441000D02*
X166339000Y-105441000D01*
X166339000Y-102839000D01*
X168941000Y-102839000D01*
X168941000Y-105441000D01*
X168941000Y-105441000D01*
G37*
G36*
X105393142Y-103485242D02*
X105541102Y-103546530D01*
X105674258Y-103635502D01*
X105787498Y-103748742D01*
X105876470Y-103881898D01*
X105937758Y-104029858D01*
X105969000Y-104186925D01*
X105969000Y-104347075D01*
X105937758Y-104504142D01*
X105890354Y-104618583D01*
X105876471Y-104652100D01*
X105787499Y-104785257D01*
X105674257Y-104898499D01*
X105623791Y-104932219D01*
X105541102Y-104987470D01*
X105393142Y-105048758D01*
X105236075Y-105080000D01*
X105075925Y-105080000D01*
X104918858Y-105048758D01*
X104770898Y-104987470D01*
X104688209Y-104932219D01*
X104637743Y-104898499D01*
X104524501Y-104785257D01*
X104435529Y-104652100D01*
X104421646Y-104618583D01*
X104374242Y-104504142D01*
X104343000Y-104347075D01*
X104343000Y-104186925D01*
X104374242Y-104029858D01*
X104435530Y-103881898D01*
X104524502Y-103748742D01*
X104637742Y-103635502D01*
X104770898Y-103546530D01*
X104918858Y-103485242D01*
X105075925Y-103454000D01*
X105236075Y-103454000D01*
X105393142Y-103485242D01*
X105393142Y-103485242D01*
G37*
G36*
X133333142Y-103485242D02*
X133481102Y-103546530D01*
X133614258Y-103635502D01*
X133727498Y-103748742D01*
X133816470Y-103881898D01*
X133877758Y-104029858D01*
X133909000Y-104186925D01*
X133909000Y-104347075D01*
X133877758Y-104504142D01*
X133830354Y-104618583D01*
X133816471Y-104652100D01*
X133727499Y-104785257D01*
X133614257Y-104898499D01*
X133563791Y-104932219D01*
X133481102Y-104987470D01*
X133333142Y-105048758D01*
X133176075Y-105080000D01*
X133015925Y-105080000D01*
X132858858Y-105048758D01*
X132710898Y-104987470D01*
X132628209Y-104932219D01*
X132577743Y-104898499D01*
X132464501Y-104785257D01*
X132375529Y-104652100D01*
X132361646Y-104618583D01*
X132314242Y-104504142D01*
X132283000Y-104347075D01*
X132283000Y-104186925D01*
X132314242Y-104029858D01*
X132375530Y-103881898D01*
X132464502Y-103748742D01*
X132577742Y-103635502D01*
X132710898Y-103546530D01*
X132858858Y-103485242D01*
X133015925Y-103454000D01*
X133176075Y-103454000D01*
X133333142Y-103485242D01*
X133333142Y-103485242D01*
G37*
G36*
X105393142Y-100945242D02*
X105541102Y-101006530D01*
X105674258Y-101095502D01*
X105787498Y-101208742D01*
X105876470Y-101341898D01*
X105937758Y-101489858D01*
X105969000Y-101646925D01*
X105969000Y-101807075D01*
X105937758Y-101964142D01*
X105876470Y-102112102D01*
X105787498Y-102245258D01*
X105674258Y-102358498D01*
X105541102Y-102447470D01*
X105393142Y-102508758D01*
X105236075Y-102540000D01*
X105075925Y-102540000D01*
X104918858Y-102508758D01*
X104770898Y-102447470D01*
X104637742Y-102358498D01*
X104524502Y-102245258D01*
X104435530Y-102112102D01*
X104374242Y-101964142D01*
X104343000Y-101807075D01*
X104343000Y-101646925D01*
X104374242Y-101489858D01*
X104435530Y-101341898D01*
X104524502Y-101208742D01*
X104637742Y-101095502D01*
X104770898Y-101006530D01*
X104918858Y-100945242D01*
X105075925Y-100914000D01*
X105236075Y-100914000D01*
X105393142Y-100945242D01*
X105393142Y-100945242D01*
G37*
G36*
X133333142Y-100945242D02*
X133481102Y-101006530D01*
X133614258Y-101095502D01*
X133727498Y-101208742D01*
X133816470Y-101341898D01*
X133877758Y-101489858D01*
X133909000Y-101646925D01*
X133909000Y-101807075D01*
X133877758Y-101964142D01*
X133816470Y-102112102D01*
X133727498Y-102245258D01*
X133614258Y-102358498D01*
X133481102Y-102447470D01*
X133333142Y-102508758D01*
X133176075Y-102540000D01*
X133015925Y-102540000D01*
X132858858Y-102508758D01*
X132710898Y-102447470D01*
X132577742Y-102358498D01*
X132464502Y-102245258D01*
X132375530Y-102112102D01*
X132314242Y-101964142D01*
X132283000Y-101807075D01*
X132283000Y-101646925D01*
X132314242Y-101489858D01*
X132375530Y-101341898D01*
X132464502Y-101208742D01*
X132577742Y-101095502D01*
X132710898Y-101006530D01*
X132858858Y-100945242D01*
X133015925Y-100914000D01*
X133176075Y-100914000D01*
X133333142Y-100945242D01*
X133333142Y-100945242D01*
G37*
G36*
X105393142Y-98405242D02*
X105541102Y-98466530D01*
X105674258Y-98555502D01*
X105787498Y-98668742D01*
X105876470Y-98801898D01*
X105937758Y-98949858D01*
X105969000Y-99106925D01*
X105969000Y-99267075D01*
X105937758Y-99424142D01*
X105876470Y-99572102D01*
X105787498Y-99705258D01*
X105674258Y-99818498D01*
X105541102Y-99907470D01*
X105393142Y-99968758D01*
X105236075Y-100000000D01*
X105075925Y-100000000D01*
X104918858Y-99968758D01*
X104770898Y-99907470D01*
X104637742Y-99818498D01*
X104524502Y-99705258D01*
X104435530Y-99572102D01*
X104374242Y-99424142D01*
X104343000Y-99267075D01*
X104343000Y-99106925D01*
X104374242Y-98949858D01*
X104435530Y-98801898D01*
X104524502Y-98668742D01*
X104637742Y-98555502D01*
X104770898Y-98466530D01*
X104918858Y-98405242D01*
X105075925Y-98374000D01*
X105236075Y-98374000D01*
X105393142Y-98405242D01*
X105393142Y-98405242D01*
G37*
G36*
X133333142Y-98405242D02*
X133481102Y-98466530D01*
X133614258Y-98555502D01*
X133727498Y-98668742D01*
X133816470Y-98801898D01*
X133877758Y-98949858D01*
X133909000Y-99106925D01*
X133909000Y-99267075D01*
X133877758Y-99424142D01*
X133816470Y-99572102D01*
X133727498Y-99705258D01*
X133614258Y-99818498D01*
X133481102Y-99907470D01*
X133333142Y-99968758D01*
X133176075Y-100000000D01*
X133015925Y-100000000D01*
X132858858Y-99968758D01*
X132710898Y-99907470D01*
X132577742Y-99818498D01*
X132464502Y-99705258D01*
X132375530Y-99572102D01*
X132314242Y-99424142D01*
X132283000Y-99267075D01*
X132283000Y-99106925D01*
X132314242Y-98949858D01*
X132375530Y-98801898D01*
X132464502Y-98668742D01*
X132577742Y-98555502D01*
X132710898Y-98466530D01*
X132858858Y-98405242D01*
X133015925Y-98374000D01*
X133176075Y-98374000D01*
X133333142Y-98405242D01*
X133333142Y-98405242D01*
G37*
G36*
X173871000Y-97671000D02*
X171569000Y-97671000D01*
X171569000Y-95369000D01*
X173871000Y-95369000D01*
X173871000Y-97671000D01*
X173871000Y-97671000D01*
G37*
G36*
X162684180Y-95375662D02*
X162785635Y-95385654D01*
X163002600Y-95451470D01*
X163002602Y-95451471D01*
X163002605Y-95451472D01*
X163202556Y-95558347D01*
X163377818Y-95702182D01*
X163521653Y-95877444D01*
X163628528Y-96077395D01*
X163628529Y-96077398D01*
X163628530Y-96077400D01*
X163694346Y-96294365D01*
X163716569Y-96520000D01*
X163694346Y-96745635D01*
X163646425Y-96903608D01*
X163628528Y-96962605D01*
X163521653Y-97162556D01*
X163377818Y-97337818D01*
X163202556Y-97481653D01*
X163002605Y-97588528D01*
X163002602Y-97588529D01*
X163002600Y-97588530D01*
X162785635Y-97654346D01*
X162684180Y-97664338D01*
X162616545Y-97671000D01*
X162503455Y-97671000D01*
X162435820Y-97664338D01*
X162334365Y-97654346D01*
X162117400Y-97588530D01*
X162117398Y-97588529D01*
X162117395Y-97588528D01*
X161917444Y-97481653D01*
X161742182Y-97337818D01*
X161598347Y-97162556D01*
X161491472Y-96962605D01*
X161473575Y-96903608D01*
X161425654Y-96745635D01*
X161403431Y-96520000D01*
X161425654Y-96294365D01*
X161491470Y-96077400D01*
X161491471Y-96077398D01*
X161491472Y-96077395D01*
X161598347Y-95877444D01*
X161742182Y-95702182D01*
X161917444Y-95558347D01*
X162117395Y-95451472D01*
X162117398Y-95451471D01*
X162117400Y-95451470D01*
X162334365Y-95385654D01*
X162435820Y-95375662D01*
X162503455Y-95369000D01*
X162616545Y-95369000D01*
X162684180Y-95375662D01*
X162684180Y-95375662D01*
G37*
G36*
X133333142Y-95865242D02*
X133481102Y-95926530D01*
X133614258Y-96015502D01*
X133727498Y-96128742D01*
X133816470Y-96261898D01*
X133877758Y-96409858D01*
X133909000Y-96566925D01*
X133909000Y-96727075D01*
X133877758Y-96884142D01*
X133845259Y-96962600D01*
X133816471Y-97032100D01*
X133728861Y-97163219D01*
X133727498Y-97165258D01*
X133614258Y-97278498D01*
X133481102Y-97367470D01*
X133333142Y-97428758D01*
X133176075Y-97460000D01*
X133015925Y-97460000D01*
X132858858Y-97428758D01*
X132710898Y-97367470D01*
X132577742Y-97278498D01*
X132464502Y-97165258D01*
X132463140Y-97163219D01*
X132375529Y-97032100D01*
X132346741Y-96962600D01*
X132314242Y-96884142D01*
X132283000Y-96727075D01*
X132283000Y-96566925D01*
X132314242Y-96409858D01*
X132375530Y-96261898D01*
X132464502Y-96128742D01*
X132577742Y-96015502D01*
X132710898Y-95926530D01*
X132858858Y-95865242D01*
X133015925Y-95834000D01*
X133176075Y-95834000D01*
X133333142Y-95865242D01*
X133333142Y-95865242D01*
G37*
G36*
X105393142Y-95865242D02*
X105541102Y-95926530D01*
X105674258Y-96015502D01*
X105787498Y-96128742D01*
X105876470Y-96261898D01*
X105937758Y-96409858D01*
X105969000Y-96566925D01*
X105969000Y-96727075D01*
X105937758Y-96884142D01*
X105905259Y-96962600D01*
X105876471Y-97032100D01*
X105788861Y-97163219D01*
X105787498Y-97165258D01*
X105674258Y-97278498D01*
X105541102Y-97367470D01*
X105393142Y-97428758D01*
X105236075Y-97460000D01*
X105075925Y-97460000D01*
X104918858Y-97428758D01*
X104770898Y-97367470D01*
X104637742Y-97278498D01*
X104524502Y-97165258D01*
X104523140Y-97163219D01*
X104435529Y-97032100D01*
X104406741Y-96962600D01*
X104374242Y-96884142D01*
X104343000Y-96727075D01*
X104343000Y-96566925D01*
X104374242Y-96409858D01*
X104435530Y-96261898D01*
X104524502Y-96128742D01*
X104637742Y-96015502D01*
X104770898Y-95926530D01*
X104918858Y-95865242D01*
X105075925Y-95834000D01*
X105236075Y-95834000D01*
X105393142Y-95865242D01*
X105393142Y-95865242D01*
G37*
G36*
X149391000Y-97194000D02*
X147789000Y-97194000D01*
X147789000Y-95592000D01*
X149391000Y-95592000D01*
X149391000Y-97194000D01*
X149391000Y-97194000D01*
G37*
G36*
X154023643Y-95622781D02*
X154169415Y-95683162D01*
X154300611Y-95770824D01*
X154412176Y-95882389D01*
X154499838Y-96013585D01*
X154560219Y-96159357D01*
X154591000Y-96314107D01*
X154591000Y-96471893D01*
X154560219Y-96626643D01*
X154499838Y-96772415D01*
X154412176Y-96903611D01*
X154300611Y-97015176D01*
X154169415Y-97102838D01*
X154023643Y-97163219D01*
X153868893Y-97194000D01*
X153711107Y-97194000D01*
X153556357Y-97163219D01*
X153410585Y-97102838D01*
X153279389Y-97015176D01*
X153167824Y-96903611D01*
X153080162Y-96772415D01*
X153019781Y-96626643D01*
X152989000Y-96471893D01*
X152989000Y-96314107D01*
X153019781Y-96159357D01*
X153080162Y-96013585D01*
X153167824Y-95882389D01*
X153279389Y-95770824D01*
X153410585Y-95683162D01*
X153556357Y-95622781D01*
X153711107Y-95592000D01*
X153868893Y-95592000D01*
X154023643Y-95622781D01*
X154023643Y-95622781D01*
G37*
G36*
X151423643Y-95622781D02*
X151569415Y-95683162D01*
X151700611Y-95770824D01*
X151812176Y-95882389D01*
X151899838Y-96013585D01*
X151960219Y-96159357D01*
X151991000Y-96314107D01*
X151991000Y-96471893D01*
X151960219Y-96626643D01*
X151899838Y-96772415D01*
X151812176Y-96903611D01*
X151700611Y-97015176D01*
X151569415Y-97102838D01*
X151423643Y-97163219D01*
X151268893Y-97194000D01*
X151111107Y-97194000D01*
X150956357Y-97163219D01*
X150810585Y-97102838D01*
X150679389Y-97015176D01*
X150567824Y-96903611D01*
X150480162Y-96772415D01*
X150419781Y-96626643D01*
X150389000Y-96471893D01*
X150389000Y-96314107D01*
X150419781Y-96159357D01*
X150480162Y-96013585D01*
X150567824Y-95882389D01*
X150679389Y-95770824D01*
X150810585Y-95683162D01*
X150956357Y-95622781D01*
X151111107Y-95592000D01*
X151268893Y-95592000D01*
X151423643Y-95622781D01*
X151423643Y-95622781D01*
G37*
G36*
X105393142Y-93325242D02*
X105541102Y-93386530D01*
X105674258Y-93475502D01*
X105787498Y-93588742D01*
X105876470Y-93721898D01*
X105937758Y-93869858D01*
X105969000Y-94026925D01*
X105969000Y-94187075D01*
X105937758Y-94344142D01*
X105876470Y-94492102D01*
X105787498Y-94625258D01*
X105674258Y-94738498D01*
X105541102Y-94827470D01*
X105393142Y-94888758D01*
X105236075Y-94920000D01*
X105075925Y-94920000D01*
X104918858Y-94888758D01*
X104770898Y-94827470D01*
X104637742Y-94738498D01*
X104524502Y-94625258D01*
X104435530Y-94492102D01*
X104374242Y-94344142D01*
X104343000Y-94187075D01*
X104343000Y-94026925D01*
X104374242Y-93869858D01*
X104435530Y-93721898D01*
X104524502Y-93588742D01*
X104637742Y-93475502D01*
X104770898Y-93386530D01*
X104918858Y-93325242D01*
X105075925Y-93294000D01*
X105236075Y-93294000D01*
X105393142Y-93325242D01*
X105393142Y-93325242D01*
G37*
G36*
X133333142Y-93325242D02*
X133481102Y-93386530D01*
X133614258Y-93475502D01*
X133727498Y-93588742D01*
X133816470Y-93721898D01*
X133877758Y-93869858D01*
X133909000Y-94026925D01*
X133909000Y-94187075D01*
X133877758Y-94344142D01*
X133816470Y-94492102D01*
X133727498Y-94625258D01*
X133614258Y-94738498D01*
X133481102Y-94827470D01*
X133333142Y-94888758D01*
X133176075Y-94920000D01*
X133015925Y-94920000D01*
X132858858Y-94888758D01*
X132710898Y-94827470D01*
X132577742Y-94738498D01*
X132464502Y-94625258D01*
X132375530Y-94492102D01*
X132314242Y-94344142D01*
X132283000Y-94187075D01*
X132283000Y-94026925D01*
X132314242Y-93869858D01*
X132375530Y-93721898D01*
X132464502Y-93588742D01*
X132577742Y-93475502D01*
X132710898Y-93386530D01*
X132858858Y-93325242D01*
X133015925Y-93294000D01*
X133176075Y-93294000D01*
X133333142Y-93325242D01*
X133333142Y-93325242D01*
G37*
G36*
X133333142Y-90785242D02*
X133481102Y-90846530D01*
X133614258Y-90935502D01*
X133727498Y-91048742D01*
X133816470Y-91181898D01*
X133877758Y-91329858D01*
X133909000Y-91486925D01*
X133909000Y-91647075D01*
X133877758Y-91804142D01*
X133816470Y-91952102D01*
X133727498Y-92085258D01*
X133614258Y-92198498D01*
X133481102Y-92287470D01*
X133333142Y-92348758D01*
X133176075Y-92380000D01*
X133015925Y-92380000D01*
X132858858Y-92348758D01*
X132710898Y-92287470D01*
X132577742Y-92198498D01*
X132464502Y-92085258D01*
X132375530Y-91952102D01*
X132314242Y-91804142D01*
X132283000Y-91647075D01*
X132283000Y-91486925D01*
X132314242Y-91329858D01*
X132375530Y-91181898D01*
X132464502Y-91048742D01*
X132577742Y-90935502D01*
X132710898Y-90846530D01*
X132858858Y-90785242D01*
X133015925Y-90754000D01*
X133176075Y-90754000D01*
X133333142Y-90785242D01*
X133333142Y-90785242D01*
G37*
G36*
X105393142Y-90785242D02*
X105541102Y-90846530D01*
X105674258Y-90935502D01*
X105787498Y-91048742D01*
X105876470Y-91181898D01*
X105937758Y-91329858D01*
X105969000Y-91486925D01*
X105969000Y-91647075D01*
X105937758Y-91804142D01*
X105876470Y-91952102D01*
X105787498Y-92085258D01*
X105674258Y-92198498D01*
X105541102Y-92287470D01*
X105393142Y-92348758D01*
X105236075Y-92380000D01*
X105075925Y-92380000D01*
X104918858Y-92348758D01*
X104770898Y-92287470D01*
X104637742Y-92198498D01*
X104524502Y-92085258D01*
X104435530Y-91952102D01*
X104374242Y-91804142D01*
X104343000Y-91647075D01*
X104343000Y-91486925D01*
X104374242Y-91329858D01*
X104435530Y-91181898D01*
X104524502Y-91048742D01*
X104637742Y-90935502D01*
X104770898Y-90846530D01*
X104918858Y-90785242D01*
X105075925Y-90754000D01*
X105236075Y-90754000D01*
X105393142Y-90785242D01*
X105393142Y-90785242D01*
G37*
G36*
X133333142Y-88245242D02*
X133481102Y-88306530D01*
X133512022Y-88327190D01*
X133592555Y-88381000D01*
X133614258Y-88395502D01*
X133727498Y-88508742D01*
X133816470Y-88641898D01*
X133877758Y-88789858D01*
X133909000Y-88946925D01*
X133909000Y-89107075D01*
X133877758Y-89264142D01*
X133816470Y-89412102D01*
X133727498Y-89545258D01*
X133614258Y-89658498D01*
X133481102Y-89747470D01*
X133333142Y-89808758D01*
X133176075Y-89840000D01*
X133015925Y-89840000D01*
X132858858Y-89808758D01*
X132710898Y-89747470D01*
X132577742Y-89658498D01*
X132464502Y-89545258D01*
X132375530Y-89412102D01*
X132314242Y-89264142D01*
X132283000Y-89107075D01*
X132283000Y-88946925D01*
X132314242Y-88789858D01*
X132375530Y-88641898D01*
X132464502Y-88508742D01*
X132577742Y-88395502D01*
X132599446Y-88381000D01*
X132679978Y-88327190D01*
X132710898Y-88306530D01*
X132858858Y-88245242D01*
X133015925Y-88214000D01*
X133176075Y-88214000D01*
X133333142Y-88245242D01*
X133333142Y-88245242D01*
G37*
G36*
X105393142Y-88245242D02*
X105541102Y-88306530D01*
X105572022Y-88327190D01*
X105652555Y-88381000D01*
X105674258Y-88395502D01*
X105787498Y-88508742D01*
X105876470Y-88641898D01*
X105937758Y-88789858D01*
X105969000Y-88946925D01*
X105969000Y-89107075D01*
X105937758Y-89264142D01*
X105876470Y-89412102D01*
X105787498Y-89545258D01*
X105674258Y-89658498D01*
X105541102Y-89747470D01*
X105393142Y-89808758D01*
X105236075Y-89840000D01*
X105075925Y-89840000D01*
X104918858Y-89808758D01*
X104770898Y-89747470D01*
X104637742Y-89658498D01*
X104524502Y-89545258D01*
X104435530Y-89412102D01*
X104374242Y-89264142D01*
X104343000Y-89107075D01*
X104343000Y-88946925D01*
X104374242Y-88789858D01*
X104435530Y-88641898D01*
X104524502Y-88508742D01*
X104637742Y-88395502D01*
X104659446Y-88381000D01*
X104739978Y-88327190D01*
X104770898Y-88306530D01*
X104918858Y-88245242D01*
X105075925Y-88214000D01*
X105236075Y-88214000D01*
X105393142Y-88245242D01*
X105393142Y-88245242D01*
G37*
G36*
X155902665Y-86882622D02*
X155976222Y-86889867D01*
X156117786Y-86932810D01*
X156248252Y-87002546D01*
X156362606Y-87096394D01*
X156456454Y-87210748D01*
X156526190Y-87341214D01*
X156569133Y-87482778D01*
X156583633Y-87630000D01*
X156569133Y-87777222D01*
X156526190Y-87918786D01*
X156456454Y-88049252D01*
X156362606Y-88163606D01*
X156248252Y-88257454D01*
X156117786Y-88327190D01*
X155976222Y-88370133D01*
X155902665Y-88377378D01*
X155865888Y-88381000D01*
X155792112Y-88381000D01*
X155755335Y-88377378D01*
X155681778Y-88370133D01*
X155540214Y-88327190D01*
X155409748Y-88257454D01*
X155295394Y-88163606D01*
X155201546Y-88049252D01*
X155131810Y-87918786D01*
X155088867Y-87777222D01*
X155074367Y-87630000D01*
X155088867Y-87482778D01*
X155131810Y-87341214D01*
X155201546Y-87210748D01*
X155295394Y-87096394D01*
X155409748Y-87002546D01*
X155540214Y-86932810D01*
X155681778Y-86889867D01*
X155755335Y-86882622D01*
X155792112Y-86879000D01*
X155865888Y-86879000D01*
X155902665Y-86882622D01*
X155902665Y-86882622D01*
G37*
G36*
X163577600Y-86889867D02*
X163668059Y-86907860D01*
X163804732Y-86964472D01*
X163926079Y-87045554D01*
X163927738Y-87046662D01*
X164032338Y-87151262D01*
X164032340Y-87151265D01*
X164114528Y-87274268D01*
X164171140Y-87410941D01*
X164200000Y-87556033D01*
X164200000Y-87703967D01*
X164171140Y-87849059D01*
X164114528Y-87985732D01*
X164033446Y-88107079D01*
X164032338Y-88108738D01*
X163927738Y-88213338D01*
X163927735Y-88213340D01*
X163804732Y-88295528D01*
X163668059Y-88352140D01*
X163581004Y-88369456D01*
X163522969Y-88381000D01*
X163375031Y-88381000D01*
X163316996Y-88369456D01*
X163229941Y-88352140D01*
X163093268Y-88295528D01*
X162970265Y-88213340D01*
X162970262Y-88213338D01*
X162865662Y-88108738D01*
X162864554Y-88107079D01*
X162783472Y-87985732D01*
X162726860Y-87849059D01*
X162698000Y-87703967D01*
X162698000Y-87556033D01*
X162726860Y-87410941D01*
X162783472Y-87274268D01*
X162865660Y-87151265D01*
X162865662Y-87151262D01*
X162970262Y-87046662D01*
X162971921Y-87045554D01*
X163093268Y-86964472D01*
X163229941Y-86907860D01*
X163320400Y-86889867D01*
X163375031Y-86879000D01*
X163522969Y-86879000D01*
X163577600Y-86889867D01*
X163577600Y-86889867D01*
G37*
G36*
X105393142Y-85705242D02*
X105541102Y-85766530D01*
X105674258Y-85855502D01*
X105787498Y-85968742D01*
X105876470Y-86101898D01*
X105937758Y-86249858D01*
X105969000Y-86406925D01*
X105969000Y-86567075D01*
X105937758Y-86724142D01*
X105890354Y-86838583D01*
X105876471Y-86872100D01*
X105789310Y-87002547D01*
X105787498Y-87005258D01*
X105674258Y-87118498D01*
X105541102Y-87207470D01*
X105541101Y-87207471D01*
X105541100Y-87207471D01*
X105507583Y-87221354D01*
X105393142Y-87268758D01*
X105236075Y-87300000D01*
X105075925Y-87300000D01*
X104918858Y-87268758D01*
X104804417Y-87221354D01*
X104770900Y-87207471D01*
X104770899Y-87207471D01*
X104770898Y-87207470D01*
X104637742Y-87118498D01*
X104524502Y-87005258D01*
X104522691Y-87002547D01*
X104435529Y-86872100D01*
X104421646Y-86838583D01*
X104374242Y-86724142D01*
X104343000Y-86567075D01*
X104343000Y-86406925D01*
X104374242Y-86249858D01*
X104435530Y-86101898D01*
X104524502Y-85968742D01*
X104637742Y-85855502D01*
X104770898Y-85766530D01*
X104918858Y-85705242D01*
X105075925Y-85674000D01*
X105236075Y-85674000D01*
X105393142Y-85705242D01*
X105393142Y-85705242D01*
G37*
G36*
X133333142Y-85705242D02*
X133481102Y-85766530D01*
X133614258Y-85855502D01*
X133727498Y-85968742D01*
X133816470Y-86101898D01*
X133877758Y-86249858D01*
X133909000Y-86406925D01*
X133909000Y-86567075D01*
X133877758Y-86724142D01*
X133830354Y-86838583D01*
X133816471Y-86872100D01*
X133729310Y-87002547D01*
X133727498Y-87005258D01*
X133614258Y-87118498D01*
X133481102Y-87207470D01*
X133481101Y-87207471D01*
X133481100Y-87207471D01*
X133447583Y-87221354D01*
X133333142Y-87268758D01*
X133176075Y-87300000D01*
X133015925Y-87300000D01*
X132858858Y-87268758D01*
X132744417Y-87221354D01*
X132710900Y-87207471D01*
X132710899Y-87207471D01*
X132710898Y-87207470D01*
X132577742Y-87118498D01*
X132464502Y-87005258D01*
X132462691Y-87002547D01*
X132375529Y-86872100D01*
X132361646Y-86838583D01*
X132314242Y-86724142D01*
X132283000Y-86567075D01*
X132283000Y-86406925D01*
X132314242Y-86249858D01*
X132375530Y-86101898D01*
X132464502Y-85968742D01*
X132577742Y-85855502D01*
X132710898Y-85766530D01*
X132858858Y-85705242D01*
X133015925Y-85674000D01*
X133176075Y-85674000D01*
X133333142Y-85705242D01*
X133333142Y-85705242D01*
G37*
G36*
X172251000Y-86653000D02*
X170649000Y-86653000D01*
X170649000Y-85051000D01*
X172251000Y-85051000D01*
X172251000Y-86653000D01*
X172251000Y-86653000D01*
G37*
G36*
X133333142Y-83165242D02*
X133481102Y-83226530D01*
X133614258Y-83315502D01*
X133727498Y-83428742D01*
X133816470Y-83561898D01*
X133877758Y-83709858D01*
X133909000Y-83866925D01*
X133909000Y-84027075D01*
X133877758Y-84184142D01*
X133816470Y-84332102D01*
X133727498Y-84465258D01*
X133614258Y-84578498D01*
X133481102Y-84667470D01*
X133333142Y-84728758D01*
X133176075Y-84760000D01*
X133015925Y-84760000D01*
X132858858Y-84728758D01*
X132710898Y-84667470D01*
X132577742Y-84578498D01*
X132464502Y-84465258D01*
X132375530Y-84332102D01*
X132314242Y-84184142D01*
X132283000Y-84027075D01*
X132283000Y-83866925D01*
X132314242Y-83709858D01*
X132375530Y-83561898D01*
X132464502Y-83428742D01*
X132577742Y-83315502D01*
X132710898Y-83226530D01*
X132858858Y-83165242D01*
X133015925Y-83134000D01*
X133176075Y-83134000D01*
X133333142Y-83165242D01*
X133333142Y-83165242D01*
G37*
G36*
X105393142Y-83165242D02*
X105541102Y-83226530D01*
X105674258Y-83315502D01*
X105787498Y-83428742D01*
X105876470Y-83561898D01*
X105937758Y-83709858D01*
X105969000Y-83866925D01*
X105969000Y-84027075D01*
X105937758Y-84184142D01*
X105876470Y-84332102D01*
X105787498Y-84465258D01*
X105674258Y-84578498D01*
X105541102Y-84667470D01*
X105393142Y-84728758D01*
X105236075Y-84760000D01*
X105075925Y-84760000D01*
X104918858Y-84728758D01*
X104770898Y-84667470D01*
X104637742Y-84578498D01*
X104524502Y-84465258D01*
X104435530Y-84332102D01*
X104374242Y-84184142D01*
X104343000Y-84027075D01*
X104343000Y-83866925D01*
X104374242Y-83709858D01*
X104435530Y-83561898D01*
X104524502Y-83428742D01*
X104637742Y-83315502D01*
X104770898Y-83226530D01*
X104918858Y-83165242D01*
X105075925Y-83134000D01*
X105236075Y-83134000D01*
X105393142Y-83165242D01*
X105393142Y-83165242D01*
G37*
G36*
X171683643Y-82481781D02*
X171829415Y-82542162D01*
X171960611Y-82629824D01*
X172072176Y-82741389D01*
X172159838Y-82872585D01*
X172220219Y-83018357D01*
X172251000Y-83173107D01*
X172251000Y-83330893D01*
X172220219Y-83485643D01*
X172159838Y-83631415D01*
X172072176Y-83762611D01*
X171960611Y-83874176D01*
X171829415Y-83961838D01*
X171683643Y-84022219D01*
X171528893Y-84053000D01*
X171371107Y-84053000D01*
X171216357Y-84022219D01*
X171070585Y-83961838D01*
X170939389Y-83874176D01*
X170827824Y-83762611D01*
X170740162Y-83631415D01*
X170679781Y-83485643D01*
X170649000Y-83330893D01*
X170649000Y-83173107D01*
X170679781Y-83018357D01*
X170740162Y-82872585D01*
X170827824Y-82741389D01*
X170939389Y-82629824D01*
X171070585Y-82542162D01*
X171216357Y-82481781D01*
X171371107Y-82451000D01*
X171528893Y-82451000D01*
X171683643Y-82481781D01*
X171683643Y-82481781D01*
G37*
G36*
X133333142Y-80625242D02*
X133481102Y-80686530D01*
X133614258Y-80775502D01*
X133727498Y-80888742D01*
X133816470Y-81021898D01*
X133877758Y-81169858D01*
X133909000Y-81326925D01*
X133909000Y-81487075D01*
X133877758Y-81644142D01*
X133816470Y-81792102D01*
X133727498Y-81925258D01*
X133614258Y-82038498D01*
X133481102Y-82127470D01*
X133333142Y-82188758D01*
X133176075Y-82220000D01*
X133015925Y-82220000D01*
X132858858Y-82188758D01*
X132710898Y-82127470D01*
X132577742Y-82038498D01*
X132464502Y-81925258D01*
X132375530Y-81792102D01*
X132314242Y-81644142D01*
X132283000Y-81487075D01*
X132283000Y-81326925D01*
X132314242Y-81169858D01*
X132375530Y-81021898D01*
X132464502Y-80888742D01*
X132577742Y-80775502D01*
X132710898Y-80686530D01*
X132858858Y-80625242D01*
X133015925Y-80594000D01*
X133176075Y-80594000D01*
X133333142Y-80625242D01*
X133333142Y-80625242D01*
G37*
G36*
X105393142Y-80625242D02*
X105541102Y-80686530D01*
X105674258Y-80775502D01*
X105787498Y-80888742D01*
X105876470Y-81021898D01*
X105937758Y-81169858D01*
X105969000Y-81326925D01*
X105969000Y-81487075D01*
X105937758Y-81644142D01*
X105876470Y-81792102D01*
X105787498Y-81925258D01*
X105674258Y-82038498D01*
X105541102Y-82127470D01*
X105393142Y-82188758D01*
X105236075Y-82220000D01*
X105075925Y-82220000D01*
X104918858Y-82188758D01*
X104770898Y-82127470D01*
X104637742Y-82038498D01*
X104524502Y-81925258D01*
X104435530Y-81792102D01*
X104374242Y-81644142D01*
X104343000Y-81487075D01*
X104343000Y-81326925D01*
X104374242Y-81169858D01*
X104435530Y-81021898D01*
X104524502Y-80888742D01*
X104637742Y-80775502D01*
X104770898Y-80686530D01*
X104918858Y-80625242D01*
X105075925Y-80594000D01*
X105236075Y-80594000D01*
X105393142Y-80625242D01*
X105393142Y-80625242D01*
G37*
G36*
X171683643Y-79881781D02*
X171829415Y-79942162D01*
X171960611Y-80029824D01*
X172072176Y-80141389D01*
X172159838Y-80272585D01*
X172220219Y-80418357D01*
X172251000Y-80573107D01*
X172251000Y-80730893D01*
X172220219Y-80885643D01*
X172159838Y-81031415D01*
X172072176Y-81162611D01*
X171960611Y-81274176D01*
X171829415Y-81361838D01*
X171683643Y-81422219D01*
X171528893Y-81453000D01*
X171371107Y-81453000D01*
X171216357Y-81422219D01*
X171070585Y-81361838D01*
X170939389Y-81274176D01*
X170827824Y-81162611D01*
X170740162Y-81031415D01*
X170679781Y-80885643D01*
X170649000Y-80730893D01*
X170649000Y-80573107D01*
X170679781Y-80418357D01*
X170740162Y-80272585D01*
X170827824Y-80141389D01*
X170939389Y-80029824D01*
X171070585Y-79942162D01*
X171216357Y-79881781D01*
X171371107Y-79851000D01*
X171528893Y-79851000D01*
X171683643Y-79881781D01*
X171683643Y-79881781D01*
G37*
G36*
X105393142Y-78085242D02*
X105541102Y-78146530D01*
X105674258Y-78235502D01*
X105787498Y-78348742D01*
X105876470Y-78481898D01*
X105937758Y-78629858D01*
X105969000Y-78786925D01*
X105969000Y-78947075D01*
X105937758Y-79104142D01*
X105876470Y-79252102D01*
X105787498Y-79385258D01*
X105674258Y-79498498D01*
X105541102Y-79587470D01*
X105393142Y-79648758D01*
X105236075Y-79680000D01*
X105075925Y-79680000D01*
X104918858Y-79648758D01*
X104770898Y-79587470D01*
X104637742Y-79498498D01*
X104524502Y-79385258D01*
X104435530Y-79252102D01*
X104374242Y-79104142D01*
X104343000Y-78947075D01*
X104343000Y-78786925D01*
X104374242Y-78629858D01*
X104435530Y-78481898D01*
X104524502Y-78348742D01*
X104637742Y-78235502D01*
X104770898Y-78146530D01*
X104918858Y-78085242D01*
X105075925Y-78054000D01*
X105236075Y-78054000D01*
X105393142Y-78085242D01*
X105393142Y-78085242D01*
G37*
G36*
X133333142Y-78085242D02*
X133481102Y-78146530D01*
X133614258Y-78235502D01*
X133727498Y-78348742D01*
X133816470Y-78481898D01*
X133877758Y-78629858D01*
X133909000Y-78786925D01*
X133909000Y-78947075D01*
X133877758Y-79104142D01*
X133816470Y-79252102D01*
X133727498Y-79385258D01*
X133614258Y-79498498D01*
X133481102Y-79587470D01*
X133333142Y-79648758D01*
X133176075Y-79680000D01*
X133015925Y-79680000D01*
X132858858Y-79648758D01*
X132710898Y-79587470D01*
X132577742Y-79498498D01*
X132464502Y-79385258D01*
X132375530Y-79252102D01*
X132314242Y-79104142D01*
X132283000Y-78947075D01*
X132283000Y-78786925D01*
X132314242Y-78629858D01*
X132375530Y-78481898D01*
X132464502Y-78348742D01*
X132577742Y-78235502D01*
X132710898Y-78146530D01*
X132858858Y-78085242D01*
X133015925Y-78054000D01*
X133176075Y-78054000D01*
X133333142Y-78085242D01*
X133333142Y-78085242D01*
G37*
G36*
X133333142Y-75545242D02*
X133481102Y-75606530D01*
X133614258Y-75695502D01*
X133727498Y-75808742D01*
X133816470Y-75941898D01*
X133877758Y-76089858D01*
X133909000Y-76246925D01*
X133909000Y-76407075D01*
X133877758Y-76564142D01*
X133816470Y-76712102D01*
X133727498Y-76845258D01*
X133614258Y-76958498D01*
X133481102Y-77047470D01*
X133333142Y-77108758D01*
X133176075Y-77140000D01*
X133015925Y-77140000D01*
X132858858Y-77108758D01*
X132710898Y-77047470D01*
X132577742Y-76958498D01*
X132464502Y-76845258D01*
X132375530Y-76712102D01*
X132314242Y-76564142D01*
X132283000Y-76407075D01*
X132283000Y-76246925D01*
X132314242Y-76089858D01*
X132375530Y-75941898D01*
X132464502Y-75808742D01*
X132577742Y-75695502D01*
X132710898Y-75606530D01*
X132858858Y-75545242D01*
X133015925Y-75514000D01*
X133176075Y-75514000D01*
X133333142Y-75545242D01*
X133333142Y-75545242D01*
G37*
G36*
X105393142Y-75545242D02*
X105541102Y-75606530D01*
X105674258Y-75695502D01*
X105787498Y-75808742D01*
X105876470Y-75941898D01*
X105937758Y-76089858D01*
X105969000Y-76246925D01*
X105969000Y-76407075D01*
X105937758Y-76564142D01*
X105876470Y-76712102D01*
X105787498Y-76845258D01*
X105674258Y-76958498D01*
X105541102Y-77047470D01*
X105393142Y-77108758D01*
X105236075Y-77140000D01*
X105075925Y-77140000D01*
X104918858Y-77108758D01*
X104770898Y-77047470D01*
X104637742Y-76958498D01*
X104524502Y-76845258D01*
X104435530Y-76712102D01*
X104374242Y-76564142D01*
X104343000Y-76407075D01*
X104343000Y-76246925D01*
X104374242Y-76089858D01*
X104435530Y-75941898D01*
X104524502Y-75808742D01*
X104637742Y-75695502D01*
X104770898Y-75606530D01*
X104918858Y-75545242D01*
X105075925Y-75514000D01*
X105236075Y-75514000D01*
X105393142Y-75545242D01*
X105393142Y-75545242D01*
G37*
G36*
X105393142Y-73005242D02*
X105541102Y-73066530D01*
X105674258Y-73155502D01*
X105787498Y-73268742D01*
X105876470Y-73401898D01*
X105937758Y-73549858D01*
X105969000Y-73706925D01*
X105969000Y-73867075D01*
X105937758Y-74024142D01*
X105876470Y-74172102D01*
X105787498Y-74305258D01*
X105674258Y-74418498D01*
X105541102Y-74507470D01*
X105393142Y-74568758D01*
X105236075Y-74600000D01*
X105075925Y-74600000D01*
X104918858Y-74568758D01*
X104770898Y-74507470D01*
X104637742Y-74418498D01*
X104524502Y-74305258D01*
X104435530Y-74172102D01*
X104374242Y-74024142D01*
X104343000Y-73867075D01*
X104343000Y-73706925D01*
X104374242Y-73549858D01*
X104435530Y-73401898D01*
X104524502Y-73268742D01*
X104637742Y-73155502D01*
X104770898Y-73066530D01*
X104918858Y-73005242D01*
X105075925Y-72974000D01*
X105236075Y-72974000D01*
X105393142Y-73005242D01*
X105393142Y-73005242D01*
G37*
G36*
X133333142Y-73005242D02*
X133481102Y-73066530D01*
X133614258Y-73155502D01*
X133727498Y-73268742D01*
X133816470Y-73401898D01*
X133877758Y-73549858D01*
X133909000Y-73706925D01*
X133909000Y-73867075D01*
X133877758Y-74024142D01*
X133816470Y-74172102D01*
X133727498Y-74305258D01*
X133614258Y-74418498D01*
X133481102Y-74507470D01*
X133333142Y-74568758D01*
X133176075Y-74600000D01*
X133015925Y-74600000D01*
X132858858Y-74568758D01*
X132710898Y-74507470D01*
X132577742Y-74418498D01*
X132464502Y-74305258D01*
X132375530Y-74172102D01*
X132314242Y-74024142D01*
X132283000Y-73867075D01*
X132283000Y-73706925D01*
X132314242Y-73549858D01*
X132375530Y-73401898D01*
X132464502Y-73268742D01*
X132577742Y-73155502D01*
X132710898Y-73066530D01*
X132858858Y-73005242D01*
X133015925Y-72974000D01*
X133176075Y-72974000D01*
X133333142Y-73005242D01*
X133333142Y-73005242D01*
G37*
G36*
X105393142Y-70465242D02*
X105541102Y-70526530D01*
X105674258Y-70615502D01*
X105787498Y-70728742D01*
X105876470Y-70861898D01*
X105937758Y-71009858D01*
X105969000Y-71166925D01*
X105969000Y-71327075D01*
X105937758Y-71484142D01*
X105876470Y-71632102D01*
X105787498Y-71765258D01*
X105674258Y-71878498D01*
X105541102Y-71967470D01*
X105393142Y-72028758D01*
X105236075Y-72060000D01*
X105075925Y-72060000D01*
X104918858Y-72028758D01*
X104770898Y-71967470D01*
X104637742Y-71878498D01*
X104524502Y-71765258D01*
X104435530Y-71632102D01*
X104374242Y-71484142D01*
X104343000Y-71327075D01*
X104343000Y-71166925D01*
X104374242Y-71009858D01*
X104435530Y-70861898D01*
X104524502Y-70728742D01*
X104637742Y-70615502D01*
X104770898Y-70526530D01*
X104918858Y-70465242D01*
X105075925Y-70434000D01*
X105236075Y-70434000D01*
X105393142Y-70465242D01*
X105393142Y-70465242D01*
G37*
G36*
X133333142Y-70465242D02*
X133481102Y-70526530D01*
X133614258Y-70615502D01*
X133727498Y-70728742D01*
X133816470Y-70861898D01*
X133877758Y-71009858D01*
X133909000Y-71166925D01*
X133909000Y-71327075D01*
X133877758Y-71484142D01*
X133816470Y-71632102D01*
X133727498Y-71765258D01*
X133614258Y-71878498D01*
X133481102Y-71967470D01*
X133333142Y-72028758D01*
X133176075Y-72060000D01*
X133015925Y-72060000D01*
X132858858Y-72028758D01*
X132710898Y-71967470D01*
X132577742Y-71878498D01*
X132464502Y-71765258D01*
X132375530Y-71632102D01*
X132314242Y-71484142D01*
X132283000Y-71327075D01*
X132283000Y-71166925D01*
X132314242Y-71009858D01*
X132375530Y-70861898D01*
X132464502Y-70728742D01*
X132577742Y-70615502D01*
X132710898Y-70526530D01*
X132858858Y-70465242D01*
X133015925Y-70434000D01*
X133176075Y-70434000D01*
X133333142Y-70465242D01*
X133333142Y-70465242D01*
G37*
G36*
X151082031Y-64069207D02*
X151280145Y-64129305D01*
X151462729Y-64226897D01*
X151622765Y-64358235D01*
X151622766Y-64358237D01*
X151622768Y-64358238D01*
X151701568Y-64454257D01*
X151754103Y-64518271D01*
X151851695Y-64700854D01*
X151911793Y-64898968D01*
X151927000Y-65053370D01*
X151927000Y-65756629D01*
X151911793Y-65911031D01*
X151881744Y-66010088D01*
X151851695Y-66109147D01*
X151799531Y-66206739D01*
X151754103Y-66291729D01*
X151622765Y-66451765D01*
X151462729Y-66583103D01*
X151280146Y-66680695D01*
X151082032Y-66740793D01*
X150876000Y-66761085D01*
X150669969Y-66740793D01*
X150471855Y-66680695D01*
X150289272Y-66583103D01*
X150129236Y-66451765D01*
X149997899Y-66291731D01*
X149900306Y-66109148D01*
X149880273Y-66043108D01*
X149840207Y-65911032D01*
X149825000Y-65756630D01*
X149825000Y-65053371D01*
X149840207Y-64898969D01*
X149900305Y-64700855D01*
X149997897Y-64518271D01*
X150129235Y-64358235D01*
X150129237Y-64358234D01*
X150129238Y-64358232D01*
X150289269Y-64226899D01*
X150289271Y-64226897D01*
X150471854Y-64129305D01*
X150669968Y-64069207D01*
X150876000Y-64048915D01*
X151082031Y-64069207D01*
X151082031Y-64069207D01*
G37*
G36*
X161242031Y-64069207D02*
X161440145Y-64129305D01*
X161622729Y-64226897D01*
X161782765Y-64358235D01*
X161782766Y-64358237D01*
X161782768Y-64358238D01*
X161861568Y-64454257D01*
X161914103Y-64518271D01*
X162011695Y-64700854D01*
X162071793Y-64898968D01*
X162087000Y-65053370D01*
X162087000Y-65756629D01*
X162071793Y-65911031D01*
X162041744Y-66010088D01*
X162011695Y-66109147D01*
X161959531Y-66206739D01*
X161914103Y-66291729D01*
X161782765Y-66451765D01*
X161622729Y-66583103D01*
X161440146Y-66680695D01*
X161242032Y-66740793D01*
X161036000Y-66761085D01*
X160829969Y-66740793D01*
X160631855Y-66680695D01*
X160449272Y-66583103D01*
X160289236Y-66451765D01*
X160157899Y-66291731D01*
X160060306Y-66109148D01*
X160040273Y-66043108D01*
X160000207Y-65911032D01*
X159985000Y-65756630D01*
X159985000Y-65053371D01*
X160000207Y-64898969D01*
X160060305Y-64700855D01*
X160157897Y-64518271D01*
X160289235Y-64358235D01*
X160289237Y-64358234D01*
X160289238Y-64358232D01*
X160449269Y-64226899D01*
X160449271Y-64226897D01*
X160631854Y-64129305D01*
X160829968Y-64069207D01*
X161036000Y-64048915D01*
X161242031Y-64069207D01*
X161242031Y-64069207D01*
G37*
G36*
X163782031Y-64069207D02*
X163980145Y-64129305D01*
X164162729Y-64226897D01*
X164322765Y-64358235D01*
X164322766Y-64358237D01*
X164322768Y-64358238D01*
X164401568Y-64454257D01*
X164454103Y-64518271D01*
X164551695Y-64700854D01*
X164611793Y-64898968D01*
X164627000Y-65053370D01*
X164627000Y-65756629D01*
X164611793Y-65911031D01*
X164581744Y-66010088D01*
X164551695Y-66109147D01*
X164499531Y-66206739D01*
X164454103Y-66291729D01*
X164322765Y-66451765D01*
X164162729Y-66583103D01*
X163980146Y-66680695D01*
X163782032Y-66740793D01*
X163576000Y-66761085D01*
X163369969Y-66740793D01*
X163171855Y-66680695D01*
X162989272Y-66583103D01*
X162829236Y-66451765D01*
X162697899Y-66291731D01*
X162600306Y-66109148D01*
X162580273Y-66043108D01*
X162540207Y-65911032D01*
X162525000Y-65756630D01*
X162525000Y-65053371D01*
X162540207Y-64898969D01*
X162600305Y-64700855D01*
X162697897Y-64518271D01*
X162829235Y-64358235D01*
X162829237Y-64358234D01*
X162829238Y-64358232D01*
X162989269Y-64226899D01*
X162989271Y-64226897D01*
X163171854Y-64129305D01*
X163369968Y-64069207D01*
X163576000Y-64048915D01*
X163782031Y-64069207D01*
X163782031Y-64069207D01*
G37*
G36*
X158702031Y-64069207D02*
X158900145Y-64129305D01*
X159082729Y-64226897D01*
X159242765Y-64358235D01*
X159242766Y-64358237D01*
X159242768Y-64358238D01*
X159321568Y-64454257D01*
X159374103Y-64518271D01*
X159471695Y-64700854D01*
X159531793Y-64898968D01*
X159547000Y-65053370D01*
X159547000Y-65756629D01*
X159531793Y-65911031D01*
X159501744Y-66010088D01*
X159471695Y-66109147D01*
X159419531Y-66206739D01*
X159374103Y-66291729D01*
X159242765Y-66451765D01*
X159082729Y-66583103D01*
X158900146Y-66680695D01*
X158702032Y-66740793D01*
X158496000Y-66761085D01*
X158289969Y-66740793D01*
X158091855Y-66680695D01*
X157909272Y-66583103D01*
X157749236Y-66451765D01*
X157617899Y-66291731D01*
X157520306Y-66109148D01*
X157500273Y-66043108D01*
X157460207Y-65911032D01*
X157445000Y-65756630D01*
X157445000Y-65053371D01*
X157460207Y-64898969D01*
X157520305Y-64700855D01*
X157617897Y-64518271D01*
X157749235Y-64358235D01*
X157749237Y-64358234D01*
X157749238Y-64358232D01*
X157909269Y-64226899D01*
X157909271Y-64226897D01*
X158091854Y-64129305D01*
X158289968Y-64069207D01*
X158496000Y-64048915D01*
X158702031Y-64069207D01*
X158702031Y-64069207D01*
G37*
G36*
X153622031Y-64069207D02*
X153820145Y-64129305D01*
X154002729Y-64226897D01*
X154162765Y-64358235D01*
X154162766Y-64358237D01*
X154162768Y-64358238D01*
X154241568Y-64454257D01*
X154294103Y-64518271D01*
X154391695Y-64700854D01*
X154451793Y-64898968D01*
X154467000Y-65053370D01*
X154467000Y-65756629D01*
X154451793Y-65911031D01*
X154421744Y-66010088D01*
X154391695Y-66109147D01*
X154339531Y-66206739D01*
X154294103Y-66291729D01*
X154162765Y-66451765D01*
X154002729Y-66583103D01*
X153820146Y-66680695D01*
X153622032Y-66740793D01*
X153416000Y-66761085D01*
X153209969Y-66740793D01*
X153011855Y-66680695D01*
X152829272Y-66583103D01*
X152669236Y-66451765D01*
X152537899Y-66291731D01*
X152440306Y-66109148D01*
X152420273Y-66043108D01*
X152380207Y-65911032D01*
X152365000Y-65756630D01*
X152365000Y-65053371D01*
X152380207Y-64898969D01*
X152440305Y-64700855D01*
X152537897Y-64518271D01*
X152669235Y-64358235D01*
X152669237Y-64358234D01*
X152669238Y-64358232D01*
X152829269Y-64226899D01*
X152829271Y-64226897D01*
X153011854Y-64129305D01*
X153209968Y-64069207D01*
X153416000Y-64048915D01*
X153622031Y-64069207D01*
X153622031Y-64069207D01*
G37*
G36*
X143462031Y-64069207D02*
X143660145Y-64129305D01*
X143842729Y-64226897D01*
X144002765Y-64358235D01*
X144002766Y-64358237D01*
X144002768Y-64358238D01*
X144081568Y-64454257D01*
X144134103Y-64518271D01*
X144231695Y-64700854D01*
X144291793Y-64898968D01*
X144307000Y-65053370D01*
X144307000Y-65756629D01*
X144291793Y-65911031D01*
X144261744Y-66010088D01*
X144231695Y-66109147D01*
X144179531Y-66206739D01*
X144134103Y-66291729D01*
X144002765Y-66451765D01*
X143842729Y-66583103D01*
X143660146Y-66680695D01*
X143462032Y-66740793D01*
X143256000Y-66761085D01*
X143049969Y-66740793D01*
X142851855Y-66680695D01*
X142669272Y-66583103D01*
X142509236Y-66451765D01*
X142377899Y-66291731D01*
X142280306Y-66109148D01*
X142260273Y-66043108D01*
X142220207Y-65911032D01*
X142205000Y-65756630D01*
X142205000Y-65053371D01*
X142220207Y-64898969D01*
X142280305Y-64700855D01*
X142377897Y-64518271D01*
X142509235Y-64358235D01*
X142509237Y-64358234D01*
X142509238Y-64358232D01*
X142669269Y-64226899D01*
X142669271Y-64226897D01*
X142851854Y-64129305D01*
X143049968Y-64069207D01*
X143256000Y-64048915D01*
X143462031Y-64069207D01*
X143462031Y-64069207D01*
G37*
G36*
X146002031Y-64069207D02*
X146200145Y-64129305D01*
X146382729Y-64226897D01*
X146542765Y-64358235D01*
X146542766Y-64358237D01*
X146542768Y-64358238D01*
X146621568Y-64454257D01*
X146674103Y-64518271D01*
X146771695Y-64700854D01*
X146831793Y-64898968D01*
X146847000Y-65053370D01*
X146847000Y-65756629D01*
X146831793Y-65911031D01*
X146801744Y-66010088D01*
X146771695Y-66109147D01*
X146719531Y-66206739D01*
X146674103Y-66291729D01*
X146542765Y-66451765D01*
X146382729Y-66583103D01*
X146200146Y-66680695D01*
X146002032Y-66740793D01*
X145796000Y-66761085D01*
X145589969Y-66740793D01*
X145391855Y-66680695D01*
X145209272Y-66583103D01*
X145049236Y-66451765D01*
X144917899Y-66291731D01*
X144820306Y-66109148D01*
X144800273Y-66043108D01*
X144760207Y-65911032D01*
X144745000Y-65756630D01*
X144745000Y-65053371D01*
X144760207Y-64898969D01*
X144820305Y-64700855D01*
X144917897Y-64518271D01*
X145049235Y-64358235D01*
X145049237Y-64358234D01*
X145049238Y-64358232D01*
X145209269Y-64226899D01*
X145209271Y-64226897D01*
X145391854Y-64129305D01*
X145589968Y-64069207D01*
X145796000Y-64048915D01*
X146002031Y-64069207D01*
X146002031Y-64069207D01*
G37*
G36*
X148542031Y-64069207D02*
X148740145Y-64129305D01*
X148922729Y-64226897D01*
X149082765Y-64358235D01*
X149082766Y-64358237D01*
X149082768Y-64358238D01*
X149161568Y-64454257D01*
X149214103Y-64518271D01*
X149311695Y-64700854D01*
X149371793Y-64898968D01*
X149387000Y-65053370D01*
X149387000Y-65756629D01*
X149371793Y-65911031D01*
X149341744Y-66010088D01*
X149311695Y-66109147D01*
X149259531Y-66206739D01*
X149214103Y-66291729D01*
X149082765Y-66451765D01*
X148922729Y-66583103D01*
X148740146Y-66680695D01*
X148542032Y-66740793D01*
X148336000Y-66761085D01*
X148129969Y-66740793D01*
X147931855Y-66680695D01*
X147749272Y-66583103D01*
X147589236Y-66451765D01*
X147457899Y-66291731D01*
X147360306Y-66109148D01*
X147340273Y-66043108D01*
X147300207Y-65911032D01*
X147285000Y-65756630D01*
X147285000Y-65053371D01*
X147300207Y-64898969D01*
X147360305Y-64700855D01*
X147457897Y-64518271D01*
X147589235Y-64358235D01*
X147589237Y-64358234D01*
X147589238Y-64358232D01*
X147749269Y-64226899D01*
X147749271Y-64226897D01*
X147931854Y-64129305D01*
X148129968Y-64069207D01*
X148336000Y-64048915D01*
X148542031Y-64069207D01*
X148542031Y-64069207D01*
G37*
G36*
X156162031Y-64069207D02*
X156360145Y-64129305D01*
X156542729Y-64226897D01*
X156702765Y-64358235D01*
X156702766Y-64358237D01*
X156702768Y-64358238D01*
X156781568Y-64454257D01*
X156834103Y-64518271D01*
X156931695Y-64700854D01*
X156991793Y-64898968D01*
X157007000Y-65053370D01*
X157007000Y-65756629D01*
X156991793Y-65911031D01*
X156961744Y-66010088D01*
X156931695Y-66109147D01*
X156879531Y-66206739D01*
X156834103Y-66291729D01*
X156702765Y-66451765D01*
X156542729Y-66583103D01*
X156360146Y-66680695D01*
X156162032Y-66740793D01*
X155956000Y-66761085D01*
X155749969Y-66740793D01*
X155551855Y-66680695D01*
X155369272Y-66583103D01*
X155209236Y-66451765D01*
X155077899Y-66291731D01*
X154980306Y-66109148D01*
X154960273Y-66043108D01*
X154920207Y-65911032D01*
X154905000Y-65756630D01*
X154905000Y-65053371D01*
X154920207Y-64898969D01*
X154980305Y-64700855D01*
X155077897Y-64518271D01*
X155209235Y-64358235D01*
X155209237Y-64358234D01*
X155209238Y-64358232D01*
X155369269Y-64226899D01*
X155369271Y-64226897D01*
X155551854Y-64129305D01*
X155749968Y-64069207D01*
X155956000Y-64048915D01*
X156162031Y-64069207D01*
X156162031Y-64069207D01*
G37*
G36*
X173942031Y-64069207D02*
X174140145Y-64129305D01*
X174322729Y-64226897D01*
X174482765Y-64358235D01*
X174482766Y-64358237D01*
X174482768Y-64358238D01*
X174561568Y-64454257D01*
X174614103Y-64518271D01*
X174711695Y-64700854D01*
X174771793Y-64898968D01*
X174787000Y-65053370D01*
X174787000Y-65756629D01*
X174771793Y-65911031D01*
X174741744Y-66010088D01*
X174711695Y-66109147D01*
X174659531Y-66206739D01*
X174614103Y-66291729D01*
X174482765Y-66451765D01*
X174322729Y-66583103D01*
X174140146Y-66680695D01*
X173942032Y-66740793D01*
X173736000Y-66761085D01*
X173529969Y-66740793D01*
X173331855Y-66680695D01*
X173149272Y-66583103D01*
X172989236Y-66451765D01*
X172857899Y-66291731D01*
X172760306Y-66109148D01*
X172740273Y-66043108D01*
X172700207Y-65911032D01*
X172685000Y-65756630D01*
X172685000Y-65053371D01*
X172700207Y-64898969D01*
X172760305Y-64700855D01*
X172857897Y-64518271D01*
X172989235Y-64358235D01*
X172989237Y-64358234D01*
X172989238Y-64358232D01*
X173149269Y-64226899D01*
X173149271Y-64226897D01*
X173331854Y-64129305D01*
X173529968Y-64069207D01*
X173736000Y-64048915D01*
X173942031Y-64069207D01*
X173942031Y-64069207D01*
G37*
G36*
X171402031Y-64069207D02*
X171600145Y-64129305D01*
X171782729Y-64226897D01*
X171942765Y-64358235D01*
X171942766Y-64358237D01*
X171942768Y-64358238D01*
X172021568Y-64454257D01*
X172074103Y-64518271D01*
X172171695Y-64700854D01*
X172231793Y-64898968D01*
X172247000Y-65053370D01*
X172247000Y-65756629D01*
X172231793Y-65911031D01*
X172201744Y-66010088D01*
X172171695Y-66109147D01*
X172119531Y-66206739D01*
X172074103Y-66291729D01*
X171942765Y-66451765D01*
X171782729Y-66583103D01*
X171600146Y-66680695D01*
X171402032Y-66740793D01*
X171196000Y-66761085D01*
X170989969Y-66740793D01*
X170791855Y-66680695D01*
X170609272Y-66583103D01*
X170449236Y-66451765D01*
X170317899Y-66291731D01*
X170220306Y-66109148D01*
X170200273Y-66043108D01*
X170160207Y-65911032D01*
X170145000Y-65756630D01*
X170145000Y-65053371D01*
X170160207Y-64898969D01*
X170220305Y-64700855D01*
X170317897Y-64518271D01*
X170449235Y-64358235D01*
X170449237Y-64358234D01*
X170449238Y-64358232D01*
X170609269Y-64226899D01*
X170609271Y-64226897D01*
X170791854Y-64129305D01*
X170989968Y-64069207D01*
X171196000Y-64048915D01*
X171402031Y-64069207D01*
X171402031Y-64069207D01*
G37*
G36*
X166322031Y-64069207D02*
X166520145Y-64129305D01*
X166702729Y-64226897D01*
X166862765Y-64358235D01*
X166862766Y-64358237D01*
X166862768Y-64358238D01*
X166941568Y-64454257D01*
X166994103Y-64518271D01*
X167091695Y-64700854D01*
X167151793Y-64898968D01*
X167167000Y-65053370D01*
X167167000Y-65756629D01*
X167151793Y-65911031D01*
X167121744Y-66010088D01*
X167091695Y-66109147D01*
X167039531Y-66206739D01*
X166994103Y-66291729D01*
X166862765Y-66451765D01*
X166702729Y-66583103D01*
X166520146Y-66680695D01*
X166322032Y-66740793D01*
X166116000Y-66761085D01*
X165909969Y-66740793D01*
X165711855Y-66680695D01*
X165529272Y-66583103D01*
X165369236Y-66451765D01*
X165237899Y-66291731D01*
X165140306Y-66109148D01*
X165120273Y-66043108D01*
X165080207Y-65911032D01*
X165065000Y-65756630D01*
X165065000Y-65053371D01*
X165080207Y-64898969D01*
X165140305Y-64700855D01*
X165237897Y-64518271D01*
X165369235Y-64358235D01*
X165369237Y-64358234D01*
X165369238Y-64358232D01*
X165529269Y-64226899D01*
X165529271Y-64226897D01*
X165711854Y-64129305D01*
X165909968Y-64069207D01*
X166116000Y-64048915D01*
X166322031Y-64069207D01*
X166322031Y-64069207D01*
G37*
G36*
X168862031Y-64069207D02*
X169060145Y-64129305D01*
X169242729Y-64226897D01*
X169402765Y-64358235D01*
X169402766Y-64358237D01*
X169402768Y-64358238D01*
X169481568Y-64454257D01*
X169534103Y-64518271D01*
X169631695Y-64700854D01*
X169691793Y-64898968D01*
X169707000Y-65053370D01*
X169707000Y-65756629D01*
X169691793Y-65911031D01*
X169661744Y-66010088D01*
X169631695Y-66109147D01*
X169579531Y-66206739D01*
X169534103Y-66291729D01*
X169402765Y-66451765D01*
X169242729Y-66583103D01*
X169060146Y-66680695D01*
X168862032Y-66740793D01*
X168656000Y-66761085D01*
X168449969Y-66740793D01*
X168251855Y-66680695D01*
X168069272Y-66583103D01*
X167909236Y-66451765D01*
X167777899Y-66291731D01*
X167680306Y-66109148D01*
X167660273Y-66043108D01*
X167620207Y-65911032D01*
X167605000Y-65756630D01*
X167605000Y-65053371D01*
X167620207Y-64898969D01*
X167680305Y-64700855D01*
X167777897Y-64518271D01*
X167909235Y-64358235D01*
X167909237Y-64358234D01*
X167909238Y-64358232D01*
X168069269Y-64226899D01*
X168069271Y-64226897D01*
X168251854Y-64129305D01*
X168449968Y-64069207D01*
X168656000Y-64048915D01*
X168862031Y-64069207D01*
X168862031Y-64069207D01*
G37*
G36*
X141767000Y-66756000D02*
X139665000Y-66756000D01*
X139665000Y-64054000D01*
X141767000Y-64054000D01*
X141767000Y-66756000D01*
X141767000Y-66756000D01*
G37*
M02*
